<?xml version="1.0" encoding="UTF-8" standalone="no"?>
<!-- Created with Inkscape (http://www.inkscape.org/) -->

<svg
   width="210mm"
   height="297mm"
   viewBox="0 0 210 297"
   version="1.1"
   id="svg5"
   xml:space="preserve"
   sodipodi:docname="radio.svg"
   inkscape:version="1.2.2 (b0a8486541, 2022-12-01)"
   xmlns:inkscape="http://www.inkscape.org/namespaces/inkscape"
   xmlns:sodipodi="http://sodipodi.sourceforge.net/DTD/sodipodi-0.dtd"
   xmlns="http://www.w3.org/2000/svg"
   xmlns:svg="http://www.w3.org/2000/svg"><sodipodi:namedview
     id="namedview7"
     pagecolor="#ffffff"
     bordercolor="#000000"
     borderopacity="0.25"
     inkscape:showpageshadow="2"
     inkscape:pageopacity="0.0"
     inkscape:pagecheckerboard="0"
     inkscape:deskcolor="#d1d1d1"
     inkscape:document-units="mm"
     showgrid="false"
     inkscape:zoom="0.34285532"
     inkscape:cx="-110.83392"
     inkscape:cy="733.54558"
     inkscape:window-width="1534"
     inkscape:window-height="831"
     inkscape:window-x="0"
     inkscape:window-y="0"
     inkscape:window-maximized="1"
     inkscape:current-layer="layer1" /><defs
     id="defs2" /><g
     inkscape:label="Layer 1"
     inkscape:groupmode="layer"
     id="layer1"><path
       style="fill:#000000;stroke-width:0.464194"
       d="m 89.640176,291.50577 c -0.20308,-0.25425 -0.788463,-3.05638 -1.300848,-6.22695 -2.873643,-17.78169 -3.527856,-21.07688 -4.184542,-21.07688 -0.217659,0 -1.537534,0.96467 -2.93304,2.14372 -1.395525,1.17903 -3.869572,3.24617 -5.497875,4.59365 -1.628303,1.34747 -6.270621,5.20615 -10.316248,8.57483 -13.672637,11.38481 -14.565751,12.05165 -15.579371,11.63189 -1.749129,-0.72433 -1.548763,-1.60059 1.141707,-4.99274 6.061219,-7.64205 16.005853,-24.50691 22.213847,-37.67186 8.469449,-17.96079 16.653744,-41.61549 21.474011,-62.06544 0.899915,-3.81784 1.880108,-7.86027 2.178224,-8.98315 0.755953,-2.84746 2.454701,-11.84673 3.699699,-19.5996 0.57703,-3.59327 1.15497,-6.80883 1.2843,-7.1457 0.36555,-0.95206 2.2558,-16.82302 3.13677,-26.33697 0.71564,-7.72834 1.41463,-17.67734 2.07628,-29.551881 l 0.23601,-4.235708 -2.06462,-1.51971 c -2.21577,-1.630966 -2.63573,-3.087788 -1.46379,-5.078013 0.79522,-1.35049 3.74464,-2.418221 5.74216,-2.078747 2.17808,0.370171 4.21119,2.375489 4.21119,4.153636 0,1.097224 -0.43434,1.774737 -1.83019,2.854784 l -1.83018,1.416141 0.51458,4.36167 c 0.28303,2.398915 0.74025,5.647878 1.01607,7.219928 0.2758,1.57206 0.75811,4.87949 1.0718,7.34986 0.80841,6.36658 2.49993,16.68282 3.71586,22.66205 0.57086,2.80724 1.53035,7.58464 2.13219,10.61645 0.60184,3.03181 1.65734,7.9011 2.34558,10.82062 0.68824,2.91953 1.87548,7.97254 2.63831,11.22893 0.76284,3.25639 1.82169,7.39069 2.353,9.18733 0.53132,1.79662 1.7258,5.93092 2.65441,9.18731 2.28661,8.01856 7.96044,25.32305 10.32955,31.50392 1.06277,2.77265 2.10633,5.59243 2.31904,6.26617 1.89149,5.9912 13.35553,30.15053 18.26739,38.49675 0.69779,1.1857 1.26871,2.23959 1.26871,2.34199 0,0.10231 2.10042,3.45033 4.66757,7.43984 4.69585,7.29761 8.29573,12.3334 12.98887,18.16996 2.11248,2.62714 2.42783,3.26218 1.87566,3.777 -1.51683,1.4142 -3.11348,0.72437 -12.50758,-5.40392 -15.30042,-9.98131 -19.07035,-12.35183 -19.64357,-12.35183 -0.30282,0 -0.4412,0.50158 -0.30978,1.12289 0.58231,2.75302 1.90069,16.14607 1.64093,16.66984 -0.48393,0.9758 -2.84766,0.67358 -4.23124,-0.54099 -1.76113,-1.54603 -13.40015,-12.51851 -21.68437,-20.44258 -3.77312,-3.6091 -7.14016,-6.65364 -7.48231,-6.76568 -0.35915,-0.1176 -2.12306,1.64164 -4.17296,4.16184 -1.95294,2.40105 -4.31574,5.28427 -5.25063,6.40716 -7.140179,8.57607 -12.616534,15.30103 -13.300485,16.33302 -1.184249,1.78687 -2.792069,2.39933 -3.610089,1.37517 z m 54.337884,-8.01045 c -1.60352,-3.70627 -3.74305,-9.31863 -5.23746,-13.73876 -0.67551,-1.99799 -1.5411,-3.87082 -1.92355,-4.16185 -2.58214,-1.9649 -14.53647,-9.54859 -15.05922,-9.55337 -0.35389,-0.003 -1.5002,1.03044 -2.54737,2.2971 l -1.90394,2.303 1.49194,1.52891 c 4.71025,4.82692 25.32964,24.05888 25.80547,24.06905 0.33954,0.008 0.0888,-1.09236 -0.62587,-2.74408 z m 25.50836,-3.64953 c -4.69956,-6.62525 -8.60012,-12.73717 -12.55221,-19.66838 -3.38154,-5.93056 -4.1266,-6.69194 -7.22052,-7.37853 -3.16071,-0.7014 -3.07426,-0.0204 0.70191,5.53084 1.96786,2.89286 4.14595,5.96708 4.84019,6.83161 0.69424,0.86453 1.87175,2.42637 2.61667,3.47077 3.57447,5.01143 14.24021,16.63153 14.84821,16.17681 0.10292,-0.077 -1.35254,-2.31035 -3.23425,-4.96312 z m -73.216236,2.42455 c 2.787681,-3.34752 10.873746,-13.20153 14.256736,-17.37382 l 3.24424,-4.00118 -2.9008,-2.77803 c -4.64958,-4.45282 -4.24544,-4.26369 -8.46305,-3.96039 -2.03015,0.14599 -3.803232,0.35216 -3.940213,0.45815 -0.272009,0.21047 -1.175973,5.95654 -2.439603,15.50759 -0.714686,5.40174 -1.339999,9.21703 -2.124831,12.96432 -0.350632,1.67413 0.552853,1.36248 2.367521,-0.81664 z m -2.090406,-18.3891 c 0.650623,-4.55569 1.069406,-8.37093 0.930589,-8.47832 -0.486596,-0.37653 -7.801772,5.94085 -7.801772,6.7376 0,2.09075 2.980089,18.80615 3.570618,20.02773 0.334856,0.69267 1.55696,-6.07847 3.300565,-18.28701 z m -23.125231,7.77264 c 5.664196,-4.66002 10.907475,-8.98931 11.651699,-9.62065 1.216042,-1.03157 1.323844,-1.3833 1.063822,-3.47076 -0.261338,-2.09803 -0.871672,-3.376 -1.388864,-2.90814 -0.239897,0.21702 -12.285548,13.45912 -15.575382,17.12244 -1.31094,1.45977 -3.289575,3.61094 -4.396956,4.78039 -1.86489,1.96939 -2.293007,2.56946 -1.833157,2.56946 0.09913,0 4.814642,-3.81272 10.478838,-8.47274 z m 90.495493,5.52448 c -1.81456,-1.87136 -10.39,-13.00096 -12.67268,-16.44717 -3.05717,-4.61553 -3.09792,-4.60946 -2.73887,0.40832 0.60443,8.44726 -0.12226,7.3417 8.63798,13.14062 7.33441,4.85506 9.61876,5.83246 6.77357,2.89823 z m -16.66407,-3.91026 c -0.42768,-2.14599 -0.8478,-2.94005 -1.94531,-3.67678 -0.76989,-0.51683 -1.5058,-0.85767 -1.63534,-0.75742 -0.24046,0.18605 2.86455,8.30562 3.45964,9.04695 0.60387,0.75225 0.67209,-1.84758 0.12107,-4.61275 z m -74.97309,-7.63701 c 2.420096,-2.69495 6.374295,-7.08489 8.787111,-9.75542 2.412796,-2.67053 4.386924,-5.00009 4.386924,-5.17682 0,-0.34378 -5.39845,-2.01326 -6.51014,-2.01326 -0.366168,0 -0.971875,0.68904 -1.346002,1.53122 -1.006221,2.26505 -5.63041,11.42857 -6.954293,13.78097 -0.631935,1.1229 -1.713827,3.01175 -2.40418,4.19743 -1.271787,2.18428 -1.64737,3.45129 -0.80739,2.72368 0.2463,-0.21334 2.427894,-2.59285 4.84797,-5.2878 z m 73.36409,-5.18607 c -0.34128,-3.43588 -0.74139,-6.56861 -0.88912,-6.96162 -0.21329,-0.56734 -0.85929,-0.71456 -3.13548,-0.71456 -3.32643,0 -3.44387,0.23155 -2.07744,4.09635 0.43414,1.22798 1.15449,3.42704 1.60073,4.8868 0.65928,2.15663 1.17667,2.89827 2.7603,3.95671 1.0719,0.71644 2.04176,1.23076 2.15523,1.14298 0.11348,-0.0878 -0.073,-2.97079 -0.41422,-6.40666 z m -7.41915,0.6558 c 0,-0.13365 -0.45683,-1.46575 -1.01523,-2.96036 -0.55836,-1.49464 -1.15657,-3.22281 -1.32931,-3.8404 l -0.31409,-1.1229 h -4.73933 c -5.41712,0 -5.95314,0.4117 -2.88986,2.21958 1.01721,0.60035 3.45127,2.18081 5.40902,3.51213 3.16444,2.15191 4.8788,2.92215 4.8788,2.19195 z m -18.21998,-4.75368 c 1.02356,-1.17606 1.86101,-2.30478 1.86101,-2.5083 0,-0.3795 -8.29238,-0.098 -8.80533,0.29896 -0.33692,0.2607 4.03634,4.34759 4.65224,4.34759 0.2371,0 1.26853,-0.96221 2.29208,-2.13825 z m -27.639494,-0.3577 c 1.277911,-1.1482 2.323483,-2.27658 2.323483,-2.5075 0,-0.50825 -5.906706,-2.1995 -6.386142,-1.82852 -0.630539,0.48789 0.361282,6.42364 1.073356,6.42364 0.366188,0 1.711373,-0.93942 2.989303,-2.08762 z m 13.573874,-4.25945 c 0.31163,-0.19718 -1.20867,-1.81943 -1.70509,-1.81943 -0.75731,0 -2.421237,1.28858 -2.421237,1.87509 0,0.37475 0.562347,0.45637 1.978917,0.28723 1.08839,-0.12994 2.05472,-0.28426 2.14741,-0.34289 z m 17.64169,-0.41359 c 8.17305,-0.21569 10.94996,-0.41766 10.94996,-0.79637 0,-0.27907 -0.14839,-1.0816 -0.32981,-1.78341 l -0.32983,-1.27601 h -13.65447 c -9.91789,0 -13.65449,0.12809 -13.65449,0.46836 0,0.25758 0.86182,1.28215 1.91517,2.27681 1.45121,1.37035 2.18628,1.75893 3.03434,1.60403 0.61552,-0.11235 6.04664,-0.33446 12.06913,-0.49341 z m -25.266873,-0.69127 c 0.174917,-0.5053 0.321432,-1.33215 0.325401,-1.83747 0.008,-0.89982 -0.117675,-0.91873 -6.061439,-0.91873 -3.693978,0 -6.068659,0.15978 -6.068659,0.40832 0,0.2246 0.29682,0.41576 0.659638,0.42485 0.362798,0.009 2.678123,0.64477 5.14515,1.41262 5.358879,1.66793 5.592135,1.68778 5.999909,0.51041 z m 45.187893,-0.25882 c 0,-0.45521 -5.73414,-2.27984 -6.15099,-1.95728 -0.16953,0.13118 -0.15657,0.70645 0.0289,1.27835 0.31008,0.95601 0.57044,1.03982 3.22962,1.03982 1.59078,0 2.89235,-0.16239 2.89235,-0.36089 z m 7.38791,-0.794 c 0,-0.18604 -1.68504,-3.2638 -3.74453,-6.83945 -2.05952,-3.57566 -5.06226,-8.79803 -6.67277,-11.60527 -3.72454,-6.49208 -4.46427,-7.19023 -4.09817,-3.86773 0.1478,1.34124 0.51951,6.02165 0.82604,10.40095 0.30654,4.37928 0.72181,8.08582 0.92281,8.23674 0.38831,0.29156 11.70001,3.93428 12.37086,3.98378 0.21768,0.0161 0.39576,-0.12299 0.39576,-0.30902 z m -51.870212,-4.3273 c 0.06003,-0.0346 0.481949,-2.90366 0.93763,-6.37562 0.455662,-3.47195 1.040726,-7.8745 1.30011,-9.78341 0.259383,-1.90893 0.312397,-3.59068 0.117874,-3.73726 -0.327934,-0.24699 -18.51249,18.93966 -18.980817,20.02679 -0.160557,0.3729 1.766541,0.42262 8.152883,0.21039 4.599795,-0.15294 8.412385,-0.30626 8.4724,-0.34089 z m 31.737862,-0.18774 c 0.54766,-0.26855 -0.0638,-1.18661 -2.64747,-3.97491 -3.39905,-3.66828 -4.17477,-4.51839 -6.47526,-7.09648 -1.35013,-1.51303 -3.37906,-3.74343 -9.79538,-10.76798 -2.17681,-2.38313 -4.24857,-4.33457 -4.60391,-4.33651 -1.75387,-0.009 -2.46536,2.92932 -4.10143,16.94195 -0.44576,3.81785 -0.93613,7.5387 -1.089706,8.26859 l -0.279269,1.32705 14.140145,-0.006 c 7.77706,-0.003 14.4606,-0.16339 14.85228,-0.35545 z M 84.933894,236.2147 c 1.451212,-1.53509 3.588429,-3.84162 4.749383,-5.12566 1.160973,-1.28402 3.940915,-4.28102 6.177677,-6.65999 3.074349,-3.26982 4.104624,-4.69919 4.221676,-5.85703 l 0.15478,-1.53164 h -5.748586 -5.748583 l -1.266103,3.47077 c -2.167474,5.94172 -4.556117,12.09183 -7.916356,20.3825 -0.367066,0.90565 2.249068,-1.37125 5.376052,-4.67895 z m 43.821086,1.01813 c -2.12363,-8.2079 -3.6065,-14.37414 -4.16857,-17.33418 l -0.62026,-3.26659 -7.86552,-0.11343 c -4.40334,-0.0634 -8.08309,0.0549 -8.35981,0.26907 -0.30727,0.23776 1.87368,2.94125 5.76378,7.14478 3.44195,3.71927 7.3267,7.97442 8.6328,9.45589 1.30607,1.48147 2.96836,3.31814 3.69396,4.08147 0.72559,0.76334 1.7794,1.88791 2.34181,2.49905 1.38122,1.50092 1.51513,0.87121 0.58181,-2.7361 z m 15.23442,-2.73654 c -0.40492,-1.06676 -1.18506,-2.95016 -1.73369,-4.18534 -0.5486,-1.23519 -1.54936,-3.59187 -2.22389,-5.23706 -1.18918,-2.90048 -2.30446,-3.95469 -3.88234,-3.66983 -0.54791,0.0989 -0.44816,0.54434 0.44004,1.96536 0.6317,1.0106 2.06137,3.49118 3.17705,5.5124 2.23907,4.05636 4.44105,7.55401 4.7557,7.55401 0.11189,0 -0.12804,-0.8728 -0.53287,-1.93954 z m -12.56697,-5.30824 c -0.4995,-9.62818 -0.63307,-10.20577 -2.53661,-10.96743 -0.86318,-0.34539 -1.68963,-0.53495 -1.83657,-0.42126 -0.14699,0.11374 0.34132,2.65376 1.085,5.64458 0.74369,2.99083 1.49396,6.17286 1.66726,7.07117 0.51157,2.6514 1.39074,5.51239 1.69398,5.51239 0.15497,0 0.12206,-3.07775 -0.073,-6.83945 z m 3.90578,-11.4331 c -0.001,-0.16844 -0.72466,-1.77622 -1.608,-3.57284 -0.88334,-1.79664 -2.64169,-5.4455 -3.90743,-8.10859 -2.80717,-5.9062 -3.6876,-6.80451 -3.2584,-3.32453 0.16614,1.34748 0.45454,4.70878 0.64081,7.4696 l 0.33866,5.01963 3.50235,1.3914 c 3.68468,1.46383 4.29512,1.6239 4.29201,1.12533 z m -35.05734,-3.4105 c 0.29972,-0.37524 2.31435,-12.93488 2.33484,-14.55582 0.012,-0.97174 -0.96622,-0.50423 -1.929,0.92166 -0.53183,0.78764 -2.926075,4.16137 -5.320561,7.49718 -2.394467,3.33579 -4.353596,6.18255 -4.353596,6.3261 0,0.46803 8.888291,0.28665 9.268317,-0.18912 z m 19.94643,-0.27497 c 0.34054,-0.42636 -13.19701,-20.73671 -13.7443,-20.62055 -0.38296,0.0813 -1.55626,8.02345 -2.59545,17.56866 l -0.36674,3.36868 h 8.22673 c 4.5247,0 8.34059,-0.1426 8.47976,-0.31679 z m 2.19737,-3.86855 c -0.31152,-1.05796 -1.59208,-7.57551 -2.42684,-12.35184 -0.31401,-1.79662 -0.73447,-4.18534 -0.93437,-5.30822 l -0.36344,-2.04164 h -4.21305 c -4.74298,0 -6.46426,0.34283 -5.66238,1.12774 0.28408,0.27807 3.32011,4.77767 6.74671,9.99913 5.69792,8.68248 7.57759,11.03429 6.85337,8.57483 z m -28.229447,-4.8999 c 0.938567,-1.40362 2.112445,-3.01139 2.608615,-3.57285 0.49615,-0.56145 1.257487,-1.57205 1.691827,-2.24578 1.325041,-2.05537 3.702055,-5.28554 4.191665,-5.69614 0.2544,-0.21336 0.46254,-0.9024 0.46254,-1.53122 0,-1.12391 -0.0533,-1.14331 -3.13512,-1.14331 -1.724298,0 -3.294362,0.19939 -3.489004,0.44307 -0.373249,0.46731 -1.135983,2.96658 -2.855473,9.35674 -0.574095,2.1335 -1.288203,4.52098 -1.586898,5.30552 -0.655848,1.72253 -0.652198,1.63599 -0.06881,1.63599 0.26084,0 1.24217,-1.14841 2.180737,-2.55202 z m 35.678897,-8.49699 c -1.14578,-3.42246 -2.35795,-5.08272 -3.22254,-4.41374 -0.24209,0.18734 1.92217,5.22859 3.74591,8.7254 1.01296,1.94221 0.69592,-0.66954 -0.52337,-4.31166 z m -6.92342,-3.93659 c -0.18509,-0.95518 -0.58678,-1.85634 -0.8926,-2.00258 -0.55845,-0.26707 -0.28443,2.65229 0.50224,5.35092 l 0.35709,1.22498 0.18489,-1.41832 c 0.10172,-0.78008 0.0335,-2.19983 -0.15158,-3.155 z m -19.39926,-4.39398 c 0.17053,-0.11498 1.14924,-7.81028 1.16793,-9.18276 0.008,-0.64498 -0.16793,-0.85996 -0.49728,-0.60509 -0.78471,0.60719 -4.765519,9.64665 -4.43206,10.06414 0.23772,0.29762 3.2372,0.0773 3.76141,-0.27629 z m 21.05183,-0.11791 c -0.13961,-0.39301 -0.73118,-2.00079 -1.31462,-3.57284 -0.58347,-1.57206 -1.72596,-5.00262 -2.53889,-7.62349 -0.81296,-2.62087 -1.68351,-4.66698 -1.9346,-4.54689 -0.25109,0.12006 -0.32085,0.79444 -0.15497,1.49859 0.16574,0.70417 0.66554,3.85275 1.11053,6.99687 0.957,6.76168 1.00429,6.90184 2.52026,7.46799 1.7832,0.66592 2.59946,0.58819 2.31235,-0.22023 z m -9.37129,-0.35256 c 0.50221,-0.33812 -5.59872,-13.67916 -6.61525,-14.46572 -0.36637,-0.28348 -0.75242,1.83987 -1.20709,6.6393 -0.36764,3.88085 -0.77811,7.19389 -0.91214,7.36233 -0.69247,0.87026 0.66078,1.13551 4.47843,0.8778 2.22607,-0.15032 4.14128,-0.33644 4.25605,-0.41371 z m 1.92646,-6.3848 c -0.40327,-2.99858 -1.85628,-11.53803 -2.18856,-12.86225 -0.20222,-0.80591 -0.55329,-0.91873 -2.85902,-0.91873 -1.52948,0 -2.62848,0.18428 -2.62848,0.44076 0,0.24242 0.56232,1.57459 1.24963,2.96036 0.68728,1.38577 1.66831,3.43833 2.18003,4.56122 2.01975,4.43202 4.04882,8.37067 4.31227,8.37067 0.15258,0 0.12287,-1.14842 -0.0658,-2.55203 z m -14.82278,-5.75034 c 3.50472,-7.73916 3.56198,-8.1061 1.20998,-7.75206 -2.16622,0.32608 -2.30901,0.51102 -2.73962,3.54842 -0.19506,1.37613 -0.816142,4.23096 -1.380124,6.34409 -1.943592,7.28226 -1.06452,6.63561 2.909764,-2.14045 z m 19.63351,-5.68277 c -0.1464,-0.28073 -0.26616,-0.0511 -0.26616,0.5104 0,0.56145 0.11986,0.79113 0.26616,0.51041 0.1464,-0.28072 0.1464,-0.74009 0,-1.02081 z m -1.10704,-4.89991 c -0.6313,-2.31561 -2.38344,-10.02995 -4.28339,-18.85889 -1.01183,-4.70178 -1.95381,-8.63701 -2.09332,-8.74496 -0.68467,-0.52976 0.49503,12.13157 1.83958,19.74361 0.27769,1.57205 0.65768,4.07909 0.84445,5.57122 0.27823,2.22302 0.54395,2.78951 1.47139,3.13688 2.10993,0.79027 2.61528,0.59738 2.22129,-0.84786 z m -14.85631,-1.42913 c 0.53243,-3.26312 1.36571,-12.33071 1.36571,-14.86108 0,-2.11844 -0.12007,-2.39066 -1.05541,-2.39066 -0.58047,0 -1.06019,0.13781 -1.06603,0.30625 -0.006,0.16843 -0.24539,1.5006 -0.53231,2.96036 -0.28695,1.45977 -0.87531,4.91592 -1.30745,7.68033 -0.43215,2.76443 -0.93536,5.7503 -1.11825,6.63527 l -0.33252,1.60907 h 1.8649 c 1.82859,0 1.87108,-0.0378 2.18136,-1.93954 z m 8.40433,1.63329 c 0.13243,-0.16843 0.053,-1.68433 -0.17612,-3.36868 -0.22922,-1.68433 -0.69344,-5.1755 -1.03159,-7.75816 -1.03797,-7.92795 -1.09334,-8.16651 -1.89538,-8.16651 -1.01462,0 -1.12605,0.60902 -1.83031,10.00397 -0.33669,4.49158 -0.62002,8.25837 -0.62964,8.37066 -0.0887,1.03842 0.32465,1.22497 2.71492,1.22497 1.43408,0 2.71572,-0.13781 2.8481,-0.30625 z m -6.33144,-27.76609 c 0.18968,-3.53712 0.31246,-8.17671 0.27301,-10.31022 -0.0714,-3.86722 -0.073,-3.87158 -0.52024,-1.42913 -0.2467,1.34748 -0.87712,5.98706 -1.40093,10.31021 l -0.95239,7.86025 h 1.12792 c 1.08977,0 1.13959,-0.2176 1.47263,-6.43111 z m 3.60016,4.55509 c -0.28076,-2.51294 -1.14109,-2.6737 -1.14109,-0.21324 0,1.5468 0.18669,2.10788 0.65964,1.98263 0.42058,-0.11142 0.59506,-0.75264 0.48145,-1.76939 z m 35.18237,13.70843 c -6.27369,-6.92882 -8.09145,-8.94792 -10.46569,-11.62478 -1.3061,-1.47255 -3.63672,-4.07136 -5.1792,-5.77514 -1.54248,-1.70379 -2.6779,-3.35306 -2.52317,-3.66504 0.15477,-0.31198 0.95578,-0.56724 1.78014,-0.56724 2.0585,0 3.70288,-0.95302 2.91804,-1.6912 -0.63395,-0.59628 -8.60543,-11.3812 -8.60543,-11.64265 0,-0.0864 -0.55898,-0.84251 -1.24217,-1.68023 -0.68319,-0.8377 -1.4116,-1.93653 -1.61869,-2.44183 -0.35292,-0.86118 -0.22554,-0.91873 2.03374,-0.91873 1.76637,0 2.41025,-0.16001 2.41025,-0.59891 0,-0.56504 -0.90923,-2.10921 -8.50579,-14.44542 -1.70709,-2.772198 -3.10381,-5.114953 -3.10381,-5.206146 0,-0.09121 0.29684,-0.160593 0.65964,-0.154327 0.3628,0.0062 1.74448,1.522257 3.07042,3.368679 1.32594,1.846434 5.77848,7.833054 9.89455,13.303604 4.11607,5.47054 7.48375,10.22343 7.48375,10.56197 0,0.43202 -0.38312,0.55886 -1.28515,0.42543 -2.67343,-0.39543 -2.48316,0.29765 1.60377,5.84223 5.37362,7.29016 5.47919,7.44473 5.48294,8.02882 0.002,0.27807 -0.95189,0.62376 -2.11929,0.7682 -1.16739,0.14445 -2.24942,0.4215 -2.40452,0.61569 -0.15517,0.19417 1.44106,2.78842 3.54703,5.76498 2.10594,2.97657 4.51658,6.42255 5.35698,7.65774 0.84036,1.23518 2.34594,3.37889 3.34568,4.76378 2.79935,3.87771 1.20974,3.44515 -2.53402,-0.68955 z m -85.02335,1.38965 c -0.163748,-0.12671 0.776655,-2.5564 2.089928,-5.39921 1.313293,-2.84281 2.810298,-6.08747 3.326672,-7.21036 0.516394,-1.12289 2.171882,-4.70594 3.678879,-7.96233 1.506978,-3.25639 2.986971,-6.56383 3.288837,-7.34986 0.746379,-1.94346 1.53536,-2.21205 2.82416,-0.96141 0.875861,0.84994 1.186563,0.94316 1.646872,0.49409 0.312018,-0.30442 1.923268,-3.49343 3.58053,-7.08669 1.657263,-3.59327 3.231276,-6.70656 3.49782,-6.91843 0.300769,-0.23907 1.047447,0.0319 1.968184,0.71457 2.63215,1.95127 2.370752,2.21244 7.073204,-7.06671 1.422631,-2.80724 3.452246,-6.89559 4.510244,-9.085245 1.19231,-2.467622 2.20846,-3.981175 2.67284,-3.981175 0.52672,0 0.64737,0.272805 0.40631,0.918728 -0.18847,0.505315 -0.7886,2.204957 -1.33337,3.777012 -2.022835,5.8373 -3.167434,9.10299 -4.794301,13.6789 -0.918224,2.58266 -2.068606,5.92561 -2.556379,7.42879 -0.487793,1.50317 -1.047726,2.85749 -1.244284,3.00958 -0.196656,0.15201 -1.333596,-0.32171 -2.526721,-1.0529 -1.193125,-0.73119 -2.350249,-1.16677 -2.571378,-0.96796 -0.221129,0.19882 -2.271207,4.2777 -4.555718,9.0642 -2.28449,4.78649 -4.364206,8.80338 -4.621536,8.92645 -0.257349,0.123 -1.118131,-0.3789 -1.912856,-1.11549 -0.794726,-0.73659 -1.69109,-1.22154 -1.991939,-1.07767 -0.300849,0.14383 -1.686542,2.24201 -3.079315,4.66254 -1.392793,2.42052 -3.800942,6.48698 -5.35148,9.03655 -1.550518,2.54959 -2.819134,4.78964 -2.819134,4.97789 0,0.45806 -0.83262,0.8351 -1.206069,0.54614 z m 114.3984,-15.03728 c -1.45049,-0.7771 -6.1993,-3.54108 -10.55289,-6.14218 -4.3536,-2.60111 -10.10681,-5.96314 -12.78491,-7.47117 -2.67811,-1.50804 -4.79931,-2.92564 -4.71376,-3.15021 0.0856,-0.22458 1.02933,-0.77582 2.09736,-1.22498 1.06803,-0.44915 1.92207,-1.09227 1.89786,-1.42913 -0.0241,-0.33689 -4.06052,-3.42558 -8.96963,-6.86382 -4.90908,-3.43822 -8.92562,-6.42869 -8.92562,-6.64549 0,-0.2168 0.70708,-0.5036 1.5713,-0.63734 3.16619,-0.48997 3.10797,-1.18875 -0.32856,-3.94387 -14.00151,-11.225214 -17.36713,-14.194354 -15.51905,-13.690814 0.87721,0.239007 30.6353,20.869944 30.6353,21.239104 0,0.19497 -0.71241,0.46475 -1.58312,0.5995 -0.87074,0.13473 -1.58221,0.45171 -1.5811,0.70436 0.001,0.25265 3.20697,2.71774 7.12409,5.478 3.9171,2.76026 7.12203,5.19787 7.12203,5.41692 0,0.21905 -0.83115,0.70495 -1.84698,1.07978 -1.0225,0.37729 -1.82081,0.96674 -1.78834,1.32046 0.0323,0.35142 1.9914,2.01791 4.35361,3.70334 11.39208,8.12813 16.79095,12.23178 16.61864,12.63175 -0.10431,0.24231 -1.36957,-0.19382 -2.82623,-0.97421 z M 22.400365,131.12719 c 0,-0.47059 30.412205,-20.45548 31.128327,-20.45548 0.293828,0 0.534224,0.55123 0.534224,1.22497 0,0.77652 0.269895,1.22498 0.737224,1.22498 0.40548,0 4.026878,-2.10756 8.047554,-4.68347 4.020695,-2.5759 7.531459,-4.63196 7.801692,-4.56901 0.270254,0.063 0.766204,0.74648 1.102136,1.51894 0.335932,0.77247 0.946287,1.45511 1.356334,1.51696 0.410048,0.0619 5.613357,-2.93798 11.562885,-6.66631 11.107821,-6.960795 11.932902,-7.418793 12.53123,-6.955825 0.422014,0.326541 -26.258158,21.063695 -27.100292,21.063695 -0.325501,0 -0.999918,-0.82688 -1.498721,-1.83748 -0.498802,-1.01059 -1.022596,-1.83745 -1.164005,-1.83745 -0.23174,0 -7.69754,4.65512 -16.389793,10.21947 -1.802681,1.15398 -3.493132,1.99508 -3.756565,1.86911 -0.263452,-0.12594 -0.631715,-0.96812 -0.8184,-1.87141 -0.186684,-0.9033 -0.519166,-1.64234 -0.738859,-1.64234 -0.219713,0 -5.381856,2.75368 -11.471437,6.11931 -6.089581,3.36562 -11.250088,6.12182 -11.467767,6.12487 -0.217679,0.003 -0.395767,-0.16053 -0.395767,-0.36353 z M 196.28051,108.82561 c -2.61214,-0.28767 -8.54888,-0.91001 -13.19271,-1.38298 -11.68359,-1.18995 -15.04162,-1.68769 -15.02798,-2.22747 0.006,-0.2553 0.47611,-0.92354 1.04368,-1.48499 1.92076,-1.90002 1.49194,-2.23664 -4.08974,-3.21031 -12.24016,-2.135183 -19.12945,-3.526694 -19.12945,-3.863791 0,-0.199114 0.61676,-0.929192 1.3706,-1.622385 1.29424,-1.19016 1.31802,-1.290102 0.42684,-1.794337 -0.51907,-0.29367 -1.24183,-0.533958 -1.60613,-0.533958 -0.89562,0 -23.91317,-5.561058 -24.31977,-5.875671 -0.84688,-0.655275 0.69891,-0.538109 7.00292,0.530795 3.75936,0.63745 9.9223,1.652602 13.69543,2.2559 3.77312,0.603297 8.75997,1.44392 11.0819,1.868028 2.3219,0.424108 5.11218,0.89277 6.20057,1.041465 2.07697,0.283762 2.51855,0.957927 1.18734,1.812779 -0.82318,0.528634 -1.08845,1.633311 -0.39219,1.633311 0.6139,0 12.12551,1.979638 15.76242,2.710657 2.6947,0.541628 3.19037,0.775728 2.9773,1.406137 -0.14061,0.41599 -0.58614,0.96861 -0.99015,1.22805 -0.404,0.25943 -0.73453,0.78518 -0.73453,1.16833 0,0.74787 4.45677,1.82992 16.09512,3.90771 7.75481,1.38448 12.03019,2.30274 12.63864,2.71455 0.70815,0.47926 -4.39496,0.33546 -10.00011,-0.28182 z M 57.756874,95.971996 c 0,-2.368389 0.07579,-2.349083 -5.540937,-1.409567 -7.893359,1.320304 -18.626176,3.042863 -18.959336,3.042863 -0.192468,0 -0.194263,-0.641726 -0.004,-1.426065 0.190075,-0.784339 0.222186,-1.675227 0.0712,-1.979746 -0.286847,-0.578405 0.201045,-0.616091 -19.860786,1.534032 -3.319332,0.355741 -6.4798035,0.646803 -7.0233024,0.646803 -1.2998898,0 -0.7439254,-0.661124 0.781362,-0.929161 C 17.974669,93.561506 42.040541,89.24311 44.168524,88.82127 c 1.58927,-0.315029 1.749787,-0.04337 0.943653,1.597292 -0.326119,0.663701 -0.324882,1.120295 0.004,1.277308 0.281064,0.134419 2.468582,-0.118061 4.861154,-0.561043 7.814976,-1.44696 14.030789,-2.512685 14.654925,-2.512685 0.431049,0 0.504726,0.603791 0.249172,2.041615 -0.346483,1.949236 -0.306933,2.041601 0.873966,2.040891 0.680261,-4.01e-4 6.461175,-0.841842 12.846459,-1.869865 12.98031,-2.089812 16.955132,-2.550696 16.440414,-1.90627 -0.185289,0.231954 -3.485215,1.185946 -7.333227,2.119952 -3.847992,0.934007 -11.747774,2.883258 -17.555075,4.331669 -5.80732,1.448411 -10.972275,2.633478 -11.477679,2.633478 -0.750926,0 -0.918942,-0.373288 -0.918942,-2.041616 z M 68.970703,83.195287 C 55.28909,82.811952 55.118321,82.796319 55.118321,81.92642 c 0,-0.484419 0.377398,-1.297664 0.838644,-1.807192 1.414633,-1.562783 0.666739,-1.963078 -4.619242,-2.472483 -2.709636,-0.261122 -7.420027,-0.764832 -10.46755,-1.119369 -3.047523,-0.354522 -6.312705,-0.726513 -7.255999,-0.826626 -2.021138,-0.214515 -2.113084,-0.578173 -0.55772,-2.20599 0.718515,-0.751977 0.968625,-1.352512 0.659638,-1.583834 C 33.442368,71.705995 29.656365,70.967383 25.302769,70.269544 20.949154,69.571705 14.953054,68.611633 11.97811,68.136026 9.0031467,67.660434 6.5690893,67.087709 6.5690893,66.863301 c 0,-0.432719 5.1017697,-0.180455 10.8180427,0.534884 1.74143,0.217926 6.609544,0.691203 10.818021,1.051712 6.50621,0.557355 18.44009,1.676307 18.865615,1.768904 0.43454,0.0946 0.0016,1.096853 -0.752721,1.741572 -0.528022,0.45147 -0.687581,0.89294 -0.395767,1.095171 0.268857,0.18635 3.813408,0.654704 7.876785,1.040801 12.76309,1.212706 12.195457,1.012574 10.754258,3.79166 -0.374067,0.721312 -0.570684,1.396156 -0.436933,1.499648 0.133631,0.103554 4.516186,0.664705 9.738782,1.247153 13.871469,1.54698 19.785933,2.369068 19.785933,2.75018 0,0.391036 -5.435547,0.349228 -24.670402,-0.189699 z m 51.055847,-2.293849 c 0,-0.20396 1.36545,-0.748412 3.03434,-1.209883 15.55352,-4.300849 33.15138,-9.035729 33.58251,-9.035729 0.17751,0 0.3228,0.907879 0.3228,2.017525 0,1.109647 0.18649,2.106665 0.41424,2.215621 0.22783,0.108955 1.71201,-0.06096 3.29819,-0.37747 6.00867,-1.199203 20.31785,-3.856232 20.76585,-3.855954 0.25713,1.54e-4 0.32245,0.81914 0.1452,1.819971 -0.17731,1.00083 -0.15019,1.891023 0.0602,1.978202 0.2104,0.0872 3.58836,-0.269872 7.5066,-0.793444 3.91824,-0.523572 9.49877,-1.239483 12.40118,-1.590887 2.9024,-0.351419 5.81139,-0.741282 6.46443,-0.866365 0.65305,-0.125159 1.18736,-0.04877 1.18736,0.169452 0,0.402317 -4.82919,1.542042 -15.83129,3.736303 -3.33776,0.665677 -9.67725,1.957292 -14.08774,2.870263 -9.98804,2.067512 -9.87477,2.064734 -9.43014,0.230797 0.27345,-1.127811 0.17612,-1.429136 -0.46154,-1.429136 -0.44444,0 -4.46671,0.734986 -8.9384,1.633296 -10.6298,2.135432 -10.35434,2.146281 -10.35434,-0.40832 0,-2.237087 0.012,-2.230142 -2.64202,-1.612554 -1.01392,0.235998 -3.74324,0.768922 -6.06517,1.184295 -2.32193,0.415373 -7.88893,1.416635 -12.37113,2.225034 -9.01263,1.625503 -9.0011,1.624098 -9.0011,1.098983 z M 94.159374,79.105326 c -1.010649,-0.518093 -8.427325,-3.839702 -16.48148,-7.381352 -8.054155,-3.54165 -14.63492,-6.562999 -14.62391,-6.714117 0.01197,-0.151087 0.95572,-0.77545 2.099342,-1.387437 1.180539,-0.631724 1.959408,-1.337712 1.801883,-1.633295 -0.152579,-0.28634 -2.168052,-1.531224 -4.47881,-2.766401 -10.261918,-5.485391 -15.020615,-8.217345 -15.15999,-8.703323 -0.08257,-0.287913 0.689217,-0.833184 1.715064,-1.211703 1.025846,-0.37852 1.865188,-0.843185 1.865188,-1.03256 0,-0.330385 -4.5187,-3.29667 -16.289969,-10.693518 -3.009548,-1.891161 -5.191063,-3.510892 -4.847791,-3.59943 0.624436,-0.161056 2.395026,0.708488 13.749825,6.752653 3.337761,1.776682 8.799556,4.663365 12.137318,6.414845 3.337761,1.75148 6.514986,3.513685 7.060499,3.916002 0.966132,0.712516 0.948561,0.748813 -0.67689,1.399212 -0.917805,0.367238 -1.542679,0.825545 -1.388605,1.018439 0.309126,0.387023 7.008583,4.111674 12.534601,6.968788 1.949934,1.008161 3.551232,2.016769 3.558432,2.241347 0.008,0.224578 -0.816405,0.845453 -1.830265,1.379689 -1.01386,0.534267 -1.843369,1.112147 -1.843369,1.284222 0,0.172076 3.027718,2.014701 6.728277,4.09473 15.794398,8.877821 17.511037,9.90072 17.222274,10.262248 -0.406756,0.509266 -0.85819,0.412842 -2.851624,-0.609039 z m 2.90747,-8.347428 c -2.286645,-2.86338 -5.146845,-6.400492 -6.356005,-7.860246 -5.727861,-6.915021 -9.655314,-12.018883 -9.448166,-12.278231 0.125454,-0.15709 1.299671,-0.409956 2.609314,-0.561922 1.485896,-0.172415 2.381183,-0.485886 2.381183,-0.83374 0,-0.306587 -2.374701,-4.277608 -5.277085,-8.824501 -2.902404,-4.546879 -5.277105,-8.419068 -5.277105,-8.604863 0,-0.185779 1.029038,-0.337792 2.286744,-0.337792 1.257706,0 2.415189,-0.09939 2.572156,-0.220858 0.156966,-0.121456 -0.425465,-1.545499 -1.294325,-3.16452 -0.868861,-1.61902 -1.998201,-3.770517 -2.509629,-4.781132 -0.511447,-1.010599 -2.175811,-4.187295 -3.698585,-7.059332 -1.522794,-2.872022 -2.619545,-5.337283 -2.437228,-5.478354 0.462961,-0.358225 0.215145,-0.687066 5.601868,7.433623 2.681474,4.042428 6.874513,10.321325 9.317845,13.953118 2.518624,3.743649 4.217252,6.710953 3.922446,6.851931 -0.28601,0.136735 -1.124613,0.131333 -1.863553,-0.01235 -2.156204,-0.418737 -1.736125,0.720155 2.867122,7.773098 2.315864,3.548301 4.082863,6.611443 3.926675,6.807007 -0.156169,0.195548 -1.072039,0.35554 -2.035219,0.35554 -2.857588,0 -3.038847,0.67327 -1.044356,3.879103 8.722609,14.020142 10.773509,17.400658 10.773509,17.758004 0,1.128135 -1.2172,-0.03472 -5.017606,-4.793679 z m 18.352586,4.695743 c 0.14041,-0.280722 2.93202,-3.909706 6.20375,-8.064422 3.2717,-4.154701 7.37174,-9.39147 9.11119,-11.637262 1.73944,-2.245791 3.56312,-4.414172 4.05265,-4.818618 0.85009,-0.702376 0.95648,-0.661171 2.37145,0.918728 0.81479,0.909746 1.66458,1.654099 1.88841,1.654099 0.22384,0 3.65877,-3.35337 7.63319,-7.451942 3.97443,-4.098557 7.54074,-7.508688 7.92512,-7.578059 0.38437,-0.06945 1.0999,0.527801 1.59006,1.327048 0.49017,0.799263 1.06331,1.453196 1.27365,1.453196 0.34945,0 2.88375,-2.198722 14.27315,-12.383189 2.17681,-1.946504 4.28363,-3.539644 4.68183,-3.540307 0.5732,-9.26e-4 0.54498,0.190162 -0.13562,0.917539 -0.47276,0.5053 -1.26894,1.3781 -1.76927,1.939544 -0.50034,0.561444 -3.77747,4.052629 -7.28251,7.75819 -3.50504,3.705546 -8.12881,8.620758 -10.27506,10.922693 -2.14623,2.301936 -4.06298,4.185335 -4.25944,4.185335 -0.19646,0 -0.65226,-0.551242 -1.01292,-1.224975 -0.36066,-0.673733 -0.85285,-1.224976 -1.09372,-1.224976 -0.24089,0 -2.57674,2.250884 -5.1908,5.001975 -2.61404,2.751091 -5.36586,5.553234 -6.11515,6.226967 -1.33424,1.199696 -1.3778,1.208123 -2.11014,0.40832 -1.9333,-2.111342 -2.25411,-2.352695 -2.7879,-2.097421 -0.31411,0.150161 -2.78419,2.493888 -5.48908,5.208188 -2.70487,2.714283 -6.52085,6.522797 -8.47998,8.463343 -1.9591,1.940547 -3.56204,3.66735 -3.56204,3.837342 0,0.169992 -0.3816,0.309072 -0.84802,0.309072 -0.46641,0 -0.73319,-0.229686 -0.59284,-0.510408 z m -7.22367,-2.858272 c -0.15716,-0.954454 -0.64956,-4.491582 -1.0941,-7.860262 -1.96533,-14.893158 -2.56371,-20.205023 -2.29917,-20.409723 0.15597,-0.120684 1.29579,0.05695 2.53291,0.394646 1.23714,0.337747 2.47289,0.507183 2.74609,0.376529 0.29118,-0.139203 0.46337,-4.145133 0.41608,-9.680649 -0.0531,-6.212984 0.1065,-9.491382 0.46671,-9.584272 0.30105,-0.07763 1.30741,0.162924 2.2363,0.534606 1.2322,0.493031 1.79073,0.548342 2.06538,0.2045 0.20702,-0.259209 0.65766,-3.997395 1.00139,-8.307087 1.31662,-16.5079035 1.90302,-17.40767994 2.3817,-3.654555 0.17791,5.111423 0.46035,12.187485 0.62763,15.724598 0.2959,6.256473 0.27524,6.431126 -0.76112,6.431126 -0.58588,0 -1.21203,-0.183743 -1.3914,-0.40832 -0.1793,-0.224578 -0.66833,-0.40832 -1.08658,-0.40832 -0.63556,0 -0.76042,1.282046 -0.76042,7.80921 v 7.809226 l -1.45119,-0.245381 c -0.79815,-0.134882 -1.94784,-0.355478 -2.55482,-0.490052 -1.07013,-0.237248 -1.1142,-0.07439 -1.45121,5.362963 -0.19108,3.084207 -0.34756,8.42666 -0.34756,11.872118 0,3.631499 -0.20821,6.264483 -0.49539,6.264483 -0.27245,0 -0.624,-0.780929 -0.78123,-1.735384 z"
       id="path279" /></g></svg>
