<?xml version="1.0" encoding="UTF-8" standalone="no"?>
<!-- Created with Inkscape (http://www.inkscape.org/) -->

<svg
   width="210mm"
   height="297mm"
   viewBox="0 0 210 297"
   version="1.1"
   id="svg5"
   xml:space="preserve"
   sodipodi:docname="tree.svg"
   inkscape:version="1.2.2 (b0a8486541, 2022-12-01)"
   xmlns:inkscape="http://www.inkscape.org/namespaces/inkscape"
   xmlns:sodipodi="http://sodipodi.sourceforge.net/DTD/sodipodi-0.dtd"
   xmlns="http://www.w3.org/2000/svg"
   xmlns:svg="http://www.w3.org/2000/svg"><sodipodi:namedview
     id="namedview7"
     pagecolor="#ffffff"
     bordercolor="#000000"
     borderopacity="0.25"
     inkscape:showpageshadow="2"
     inkscape:pageopacity="0.0"
     inkscape:pagecheckerboard="0"
     inkscape:deskcolor="#d1d1d1"
     inkscape:document-units="mm"
     showgrid="false"
     inkscape:zoom="0.34285532"
     inkscape:cx="-110.83392"
     inkscape:cy="733.54558"
     inkscape:window-width="1534"
     inkscape:window-height="831"
     inkscape:window-x="0"
     inkscape:window-y="0"
     inkscape:window-maximized="1"
     inkscape:current-layer="layer1" /><defs
     id="defs2" /><g
     inkscape:label="Layer 1"
     inkscape:groupmode="layer"
     id="layer1"><path
       style="fill:#000000;stroke-width:0.215775"
       d="m 110.56769,290.46916 c -1.07572,-0.19249 -2.63888,-0.46734 -3.4737,-0.61079 -1.00126,-0.172 -4.96924,-0.20331 -11.659052,-0.092 -6.143772,0.10223 -10.183092,0.0778 -10.247472,-0.0619 -0.08356,-0.18144 2.581391,-11.53038 3.222261,-13.72219 0.08038,-0.27495 0.290466,-1.11854 0.466836,-1.87464 0.176369,-0.75612 0.385915,-1.5997 0.465643,-1.87465 0.228853,-0.78917 2.812324,-11.41453 2.977911,-12.24764 0.161726,-0.81361 0.850747,-3.44293 1.113495,-4.24917 2.031649,-6.23367 3.283767,-10.63276 3.73503,-13.12246 0.311131,-1.71651 0.314159,-7.37697 0.0054,-9.24821 -0.124949,-0.75611 -0.352469,-2.16209 -0.505625,-3.1244 -0.294113,-1.84814 -0.574628,-3.3399 -0.822508,-4.37416 -0.08237,-0.34368 -0.290586,-1.29975 -0.462712,-2.12458 -0.172116,-0.82484 -0.38238,-1.72466 -0.467271,-1.99961 -0.08487,-0.27495 -0.322504,-1.17478 -0.528047,-1.99961 -0.205543,-0.82484 -0.720393,-2.79322 -1.144089,-4.37416 -0.690832,-2.57766 -1.606591,-6.3314 -2.042759,-8.37339 -0.158106,-0.74014 -0.581692,-4.09194 -0.947651,-7.49853 -0.472558,-4.39893 -0.919797,-7.50563 -1.405326,-9.76187 -0.374435,-1.74001 -1.966207,-3.83512 -6.500208,-8.55571 -0.102451,-0.1066 -0.479649,-0.48072 -0.838228,-0.83123 -6.233186,-6.09301 -7.377568,-7.37159 -9.045091,-10.10578 -0.742294,-1.21712 -2.867632,-5.37695 -3.123552,-6.11359 -0.07162,-0.2062 -0.381259,-0.93731 -0.68804,-1.62469 -1.073815,-2.406 -1.422456,-3.58814 -2.322099,-7.87346 -0.50421,-2.40176 -1.330641,-6.73059 -1.574733,-8.24841 -0.242729,-1.50939 -1.067995,-4.44133 -1.580313,-5.61438 -0.899325,-2.05917 -1.404948,-2.54077 -4.205145,-4.00519 -0.461038,-0.24109 -1.005873,-0.52781 -1.210773,-0.63716 -0.204909,-0.10937 -0.833572,-0.39243 -1.397049,-0.62911 -0.563468,-0.23667 -1.192141,-0.51562 -1.397041,-0.61992 -1.401356,-0.71333 -2.79193,-0.8647 -7.440575,-0.80988 l -4.832765,0.0569 -1.127959,0.92347 c -2.281623,1.868 -6.030555,5.58328 -6.767587,6.70684 -0.491597,0.7494 -0.866071,1.65723 -1.064177,2.57987 -0.379816,1.76885 -0.67843,2.60279 -0.97995,2.73663 -0.349356,0.15509 -0.288548,-0.98192 0.144876,-2.70832 0.207734,-0.82748 0.330785,-1.60636 0.273438,-1.73086 -0.13635,-0.29605 -0.60288,-0.0645 -1.337246,0.66358 -0.724397,0.71825 -0.919618,0.73242 -1.177636,0.0856 -0.30896,-0.77465 0.01512,-1.11892 5.77546,-6.1369 1.517912,-1.32228 3.352902,-3.50109 3.352902,-3.98113 0,-0.49236 -0.598473,-1.03662 -1.490178,-1.35521 -1.293148,-0.46202 -6.559734,-0.64102 -8.102853,-0.27541 -0.717157,0.16992 -2.267876,0.39243 -3.44605,0.49444 -2.102051,0.18204 -2.887974,0.42948 -4.004852,1.26093 -0.689463,0.51325 -2.694137,2.0027 -3.073506,2.28359 -0.829265,0.61398 -2.527635,1.46342 -2.925923,1.46342 -0.651633,0 -0.454632,-0.45736 0.511849,-1.18834 5.444846,-4.11807 7.715685,-5.55525 8.782109,-5.55805 0.480147,-9.4e-4 1.569838,-0.23724 2.421545,-0.52438 2.58925,-0.87297 3.351508,-1.00587 4.854888,-0.84642 0.987599,0.10485 1.443613,0.0671 1.443613,-0.11927 0,-0.39443 -0.880434,-2.18142 -1.822614,-3.69938 -0.916963,-1.47729 -2.839609,-3.56105 -3.285736,-3.56105 -0.161458,0 -0.293561,-0.11257 -0.293561,-0.24994 0,-0.34414 0.480535,-0.31333 0.974698,0.0625 1.619447,1.23164 3.274117,3.35077 4.892031,6.26528 0.641615,1.15578 1.445285,1.72462 3.16749,2.24196 1.921523,0.57724 5.997818,1.02846 7.668654,0.84891 0.802287,-0.0862 2.548405,-0.274 3.880248,-0.41729 2.399482,-0.25814 2.776931,-0.22704 6.296722,0.51893 1.275073,0.27023 1.489591,0.25985 1.746248,-0.0845 0.265956,-0.35688 0.238739,-0.51897 -0.298894,-1.77989 -1.095649,-2.56965 -2.393294,-3.97103 -4.298036,-4.64161 -2.143481,-0.75463 -3.125241,-1.29298 -6.426396,-3.52391 -3.156279,-2.13301 -5.619743,-4.1003 -7.255841,-5.79443 -0.302504,-0.31324 -1.434115,-1.49425 -2.514684,-2.62441 -1.080559,-1.13018 -2.185122,-2.28049 -2.45458,-2.55622 -0.269469,-0.27574 -1.044828,-0.84597 -1.72303,-1.26719 -1.565363,-0.97223 -1.704478,-1.63983 -0.295034,-1.41584 1.227047,0.195 2.123298,0.87992 5.488355,4.19423 2.767192,2.72545 6.3122,5.97433 6.51887,5.97433 0.05889,0 0.87952,0.65844 1.82351,1.46321 2.396368,2.04292 2.771836,2.27197 4.008841,2.44544 1.254541,0.17597 1.953494,-0.16016 1.768679,-0.85055 -0.200223,-0.74794 -3.912509,-6.52104 -5.777033,-8.98406 -1.537578,-2.03114 -5.958654,-5.93245 -9.1535,-8.07735 -3.809055,-2.55728 -6.158242,-3.564646 -9.900041,-4.245279 -2.676729,-0.486915 -5.809313,-1.244645 -7.998304,-1.934715 -0.832698,-0.262529 -1.628032,-0.329475 -2.601625,-0.219058 -1.496177,0.169732 -1.677401,0.210844 -6.789531,1.540669 -3.3379609,0.868307 -5.2144211,1.080971 -5.4289294,0.61523 -0.066843,-0.145048 0.1154107,-0.24996 0.4341891,-0.24996 0.3021161,0 1.3758026,-0.236489 2.3859629,-0.525537 1.0101712,-0.289032 2.2119706,-0.627856 2.6706804,-0.752924 0.935197,-0.25497 4.036545,-1.299359 5.545823,-1.867551 0.444504,-0.167358 0.227121,-0.593123 -0.838228,-1.64178 -2.087169,-2.054467 -4.235287,-5.201003 -3.798162,-5.563507 0.07779,-0.06451 1.100394,0.952264 2.272471,2.259487 2.020241,2.253165 4.644159,4.342541 5.453539,4.342541 0.173207,0 0.460461,0.107621 0.638352,0.239038 1.032086,0.762725 4.887127,1.588217 4.887127,1.0465 0,-0.155766 -0.398158,-0.946744 -0.884792,-1.757702 -0.865453,-1.442237 -2.468108,-5.031009 -2.468108,-5.526735 0,-0.137475 -0.08386,-0.249902 -0.186278,-0.249902 -0.102451,0 -0.186278,-0.151951 -0.186278,-0.337688 0,-0.185722 -0.209544,-0.866545 -0.465683,-1.512941 -0.256118,-0.646366 -0.465673,-1.281752 -0.465673,-1.41196 0,-0.405479 0.323215,-0.259193 0.44342,0.200693 0.06287,0.240582 0.450942,1.224767 0.862362,2.187079 0.411429,0.962326 0.800884,1.918391 0.865453,2.124589 0.179892,0.574483 1.570565,2.778746 2.284976,3.621743 0.35069,0.413823 0.72789,0.870681 0.838228,1.015219 1.002899,1.313937 2.438207,2.60983 3.037207,2.742222 6.572466,1.452577 7.974708,2.0884 13.902108,6.303469 0.449856,0.31991 0.559528,0.32527 0.703081,0.0345 0.19149,-0.38798 0.01413,-4.280259 -0.235806,-5.172479 -0.08913,-0.318261 -0.162045,-0.857006 -0.162045,-1.197228 0,-0.973686 -0.660824,-2.467796 -1.840789,-4.162003 C 39.767493,92.470509 38.965036,91.31831 38.582066,90.768409 37.495689,89.208474 36.311764,86.642916 35.874461,84.901015 35.18095,82.138594 34.57614,72.314434 35.12774,72.771888 c 0.102452,0.0849 0.186278,0.822696 0.186278,1.639435 0,0.823337 0.08296,1.484951 0.186277,1.484951 0.102451,0 0.186267,-0.112573 0.186267,-0.24996 0,-0.137476 0.125737,-0.249931 0.279416,-0.249931 0.173843,0 0.279406,-0.236067 0.279406,-0.624886 0,-0.343674 0.08386,-0.624886 0.186277,-0.624886 0.225302,0 0.247554,0.805861 0.03143,1.137287 -0.594324,0.911239 -0.745149,4.143289 -0.32975,7.066122 0.414921,2.919469 1.219059,4.791418 3.26209,7.593829 0.982417,1.347592 1.885334,2.449942 2.006494,2.449695 0.121162,-2.48e-4 0.264645,-0.197271 0.318859,-0.437868 0.530909,-2.356155 0.663837,-13.964333 0.208231,-18.183991 -0.317525,-2.940731 -0.353554,-4.624118 -0.09898,-4.624118 0.100498,0 0.232226,0.309334 0.292726,0.687376 0.679406,4.245042 1.014766,8.081721 1.014458,11.605746 -3.78e-4,5.200319 0.743667,13.765591 1.516102,17.451149 0.50789,2.423322 2.017347,6.900312 2.932489,8.697662 0.880038,1.72843 8.020816,11.08805 8.387203,10.99337 0.490084,-0.1267 0.614468,-1.92164 0.505205,-7.29044 -0.142399,-6.99645 -0.367571,-9.91692 -1.158459,-15.025086 -0.433921,-2.802586 -1.123602,-6.225136 -1.39703,-6.932769 -0.09222,-0.238703 -0.167705,-0.600449 -0.167705,-0.803866 0,-0.339959 -0.370863,-1.641882 -0.767829,-2.695445 -0.08993,-0.238718 -0.163527,-0.554095 -0.163527,-0.700862 0,-0.531129 -1.93733,-5.666249 -2.96662,-7.863391 -0.579622,-1.237262 -1.553275,-3.136327 -2.163686,-4.220153 -2.174457,-3.860912 -3.574015,-7.578226 -4.551508,-12.089191 -0.233507,-1.077572 -0.493147,-1.81215 -0.64053,-1.81215 -0.136311,0 -0.614747,0.212918 -1.063181,0.473154 -1.34206,0.778839 -1.653566,0.85945 -1.653566,0.427916 0,-0.228895 0.557837,-0.742413 1.389668,-1.27929 l 1.389668,-0.896891 0.05392,-2.049439 c 0.06277,-2.38241 0.399374,-2.765356 0.483291,-0.549704 0.03124,0.824849 0.123926,1.590341 0.205973,1.701118 0.08207,0.110796 0.89472,0.03671 1.805933,-0.164797 0.911213,-0.201397 3.137935,-0.432627 4.948285,-0.513838 5.639926,-0.252975 10.030771,-1.22866 10.02535,-2.227718 -9.95e-4,-0.276895 -1.604495,-1.725653 -3.538741,-3.198251 -0.472617,-0.359799 -1.189982,-0.934306 -1.59415,-1.276673 -0.962293,-0.815133 -5.73389,-3.942986 -6.015106,-3.942986 -0.119948,0 -0.363643,-0.09424 -0.541533,-0.209232 -0.177902,-0.115063 -0.657751,-0.424392 -1.066345,-0.687364 -0.934968,-0.601763 -1.112113,-1.352973 -0.319037,-1.352973 1.395488,0 4.800594,1.968911 8.280187,4.787793 2.780213,2.252305 2.986047,2.416607 3.585555,2.862357 0.307348,0.228521 1.291814,1.075248 2.187707,1.881613 2.225997,2.003561 2.442932,1.985461 1.280008,-0.106791 -0.875133,-1.57451 -1.325586,-2.730529 -1.325586,-3.401943 0,-0.580046 -0.215912,-1.360073 -0.903743,-3.264898 -0.50631,-1.402106 -2.735767,-4.679392 -3.935479,-5.785102 -2.34272,-2.159161 -5.289762,-3.689771 -7.148706,-3.712797 -1.58848,-0.01962 -4.406304,-1.338969 -4.006294,-1.875725 0.06197,-0.0833 0.982825,0.122403 2.046215,0.456948 2.754648,0.866657 3.826553,1.128322 5.116497,1.249016 0.62374,0.05833 1.315272,0.23091 1.536743,0.383426 1.027142,0.707387 1.147725,0.769616 1.14691,0.591884 -5.58e-4,-0.104242 -0.230982,-0.527732 -0.512248,-0.941019 -1.985933,-2.918113 -2.570659,-3.874656 -3.32475,-5.438863 -1.356633,-2.814076 -1.953335,-4.642684 -1.993801,-6.110035 -0.0198,-0.716371 0.03343,-1.335005 0.118056,-1.374743 0.08465,-0.03977 0.314432,0.546367 0.510537,1.302475 0.802616,3.094508 2.560333,6.667523 5.424951,11.027585 0.236542,0.360015 0.639625,0.994294 0.895754,1.409489 0.256128,0.415209 1.262002,1.906414 2.235268,3.313819 0.973275,1.407405 2.082095,3.211373 2.46404,4.008832 0.381956,0.797448 0.780264,1.521078 0.885151,1.608055 0.357145,0.296183 0.551569,-1.10938 0.439898,-3.180216 -0.0755,-1.399477 -0.05024,-1.985075 0.07819,-1.81574 0.209574,0.276401 0.621273,4.540517 0.50991,5.281314 -0.0387,0.257166 -0.113422,1.299352 -0.166143,2.315949 l -0.0958,1.848376 1.248762,1.742045 c 1.835498,2.560528 3.528406,4.215515 4.650348,4.546176 0.491148,0.144742 0.669269,0.06741 1.018387,-0.442332 1.236825,-1.805795 1.541896,-6.914785 0.63488,-10.632053 -0.626604,-2.568055 -2.675545,-8.278728 -3.465388,-9.658502 -0.195449,-0.341434 -1.302866,-3.034215 -1.727636,-4.200887 l -0.346422,-0.951525 0.589351,-2.047891 c 0.499236,-1.73481 0.575006,-2.277186 0.495556,-3.547625 -0.05163,-0.824838 -0.22749,-2.005858 -0.390908,-2.62448 -0.163408,-0.618634 -0.298117,-1.687183 -0.299341,-2.374548 -9.94e-4,-0.687364 -0.138588,-2.003922 -0.305259,-2.92568 -0.166671,-0.921759 -0.248748,-1.865809 -0.182379,-2.09788 0.183244,-0.64078 0.358291,-0.222915 0.511214,1.220397 0.364786,3.442683 0.687005,5.285973 1.219366,6.975319 0.532045,1.688384 0.841461,1.448451 1.8143,-1.406872 0.590275,-1.732486 0.607823,-2.134601 0.202442,-4.639721 -0.435859,-2.691096 -0.544327,-3.2829 -1.214312,-6.623884 -0.330803,-1.6496143 -0.667606,-3.3930327 -0.74842,-3.8741958 -0.127914,-0.7615805 -0.25783,-1.3997828 -0.846483,-4.1584787 -0.06268,-0.2937935 -0.02885,-0.6047394 0.0751,-0.6909949 0.104004,-0.086228 0.242302,0.097835 0.307349,0.4092013 0.06505,0.3113201 0.197925,0.7909877 0.295312,1.0659337 0.217582,0.6142956 1.848467,6.8075044 1.974632,7.4985404 0.05024,0.274959 0.161687,0.724873 0.247753,0.999819 0.147592,0.471484 0.469165,1.985821 0.90229,4.249166 0.10523,0.549905 0.246798,1.787161 0.314591,2.749471 0.142737,2.026 -0.226704,3.784143 -1.286812,6.123825 -1.363616,3.009507 -2.030737,4.882057 -2.047648,5.747552 -0.01343,0.685403 0.281615,1.558241 1.270478,3.758862 2.076067,4.620165 3.561282,8.635672 4.526988,12.239373 0.243665,0.909292 0.294038,2.029898 0.262962,5.849106 -0.03004,3.689384 0.0185,4.840931 0.221492,5.256674 0.437293,0.895543 1.845544,1.669057 4.868556,2.67416 0.409807,0.136252 1.164207,0.403436 1.676455,0.593714 2.691679,0.999873 3.27179,1.122249 3.388294,0.714836 0.05481,-0.191667 -0.01462,-0.557607 -0.154126,-0.813211 -1.719569,-3.148742 -3.473347,-7.336949 -4.146017,-9.90112 -0.18032,-0.687364 -0.401612,-1.474707 -0.491756,-1.749653 -0.09012,-0.274946 -0.377738,-1.512215 -0.639098,-2.749471 -0.802825,-3.800508 -1.063729,-4.976135 -1.236855,-5.573186 -0.09151,-0.315791 -0.166483,-0.729372 -0.166483,-0.919063 0,-0.189704 -0.305717,-1.224828 -0.679365,-2.300305 -0.779856,-2.244576 -1.192818,-4.487511 -0.973016,-5.284798 0.294635,-1.068735 0.912028,-0.473246 1.17499,1.133288 0.23322,1.424837 0.582129,1.527766 1.436771,0.423832 1.388952,-1.794063 2.191349,-4.147975 2.223569,-6.52307 0.0089,-0.661535 0.08157,-1.765177 0.161389,-2.452554 0.11922,-1.027116 0.149501,-0.740824 0.169953,1.606946 0.03213,3.690813 -0.396995,5.604048 -1.740776,7.760753 -0.897983,1.441217 -1.073149,2.074628 -0.813707,2.94242 0.113023,0.37806 0.271238,1.081056 0.351584,1.562205 1.123612,6.728417 2.52291,11.525085 4.676102,16.029214 0.935285,1.95647 1.441763,2.415834 1.780138,1.614584 0.08197,-0.194003 0.400866,-0.728278 0.708741,-1.187282 0.307895,-0.458989 0.999427,-1.635633 1.536763,-2.614775 1.379133,-2.513089 1.354882,-2.899639 -0.404208,-6.444167 L 83.59007,44.017813 83.57913,40.773205 c -0.006,-1.784518 0.06934,-3.413317 0.167526,-3.619519 0.141016,-0.296277 0.179653,-0.243845 0.184159,0.249944 0.01,1.064504 0.229758,1.286297 1.092467,1.101198 0.615025,-0.132014 0.94015,-0.40864 1.521314,-1.294586 0.406525,-0.619716 0.73913,-1.385475 0.73913,-1.701693 0,-0.316204 0.08386,-0.64445 0.186278,-0.729412 0.266285,-0.220846 0.232066,1.021617 -0.04666,1.69056 -0.370346,0.889137 -1.118707,1.933739 -1.385331,1.933739 -0.1345,0 -0.244549,0.09931 -0.244549,0.220805 0,0.12147 -0.146697,0.291951 -0.325981,0.378914 -0.547064,0.265362 -1.205819,0.836318 -1.372787,1.189831 -0.469325,0.993599 -0.01363,3.096898 1.242673,5.735166 1.063341,2.233111 1.511914,2.779345 1.968306,2.396866 0.192773,-0.16154 0.350511,-0.370919 0.350511,-0.46529 0,-0.237385 1.160419,-3.626862 2.167784,-6.331898 1.231821,-3.307759 2.861574,-6.246842 2.861574,-5.160566 0,0.140286 -0.447549,1.211561 -0.994553,2.380608 -0.834309,1.783103 -1.606217,3.921455 -2.356916,6.529236 -0.07918,0.274946 -0.36771,1.455965 -0.641247,2.624493 -0.273537,1.168526 -0.572191,2.349545 -0.663689,2.624491 -0.09152,0.274946 -0.338047,1.026488 -0.54791,1.670085 -0.209862,0.64361 -0.858888,2.105395 -1.442261,3.24844 -0.882554,1.729216 -1.074252,2.297648 -1.141438,3.384671 -0.07053,1.141256 -0.006,1.462546 0.50975,2.541214 0.324777,0.679114 1.648693,2.566174 2.94204,4.193437 1.293347,1.627274 2.741029,3.471233 3.217068,4.097706 0.860729,1.132728 2.050525,3.257536 2.050525,3.661981 0,0.834186 1.982974,4.906393 2.272344,4.666408 0.312172,-0.258902 0.199194,-0.887588 -1.184679,-6.592983 -0.216743,-0.89356 -0.462485,-2.074594 -0.546095,-2.624495 -0.08368,-0.549886 -0.301819,-1.843376 -0.484918,-2.874431 -0.232176,-1.307388 -0.329613,-2.820058 -0.322016,-4.999028 0.01118,-3.210023 0.226196,-5.084923 1.289854,-11.24783 1.296562,-7.512424 1.719813,-12.712166 1.173989,-14.42295 -0.12267,-0.384521 -0.688485,-1.483704 -1.257339,-2.442609 -0.568854,-0.958907 -1.133909,-1.914972 -1.255667,-2.124591 -0.121748,-0.209606 -0.533174,-0.887253 -0.914263,-1.505902 -0.964572,-1.565835 -2.310401,-4.38549 -2.310401,-4.84057 0,-0.208392 -0.07371,-0.440076 -0.163906,-0.514827 -0.284051,-0.235582 -0.70131,-2.240465 -1.526179,-7.333236 -0.233886,-1.444046 -0.224863,-3.880983 0.01363,-3.683204 0.102462,0.0849 0.185203,0.569647 0.183889,1.077051 -0.005,1.785027 1.39717,9.538744 1.725408,9.543764 0.0768,9.46e-4 0.139704,0.170856 0.139704,0.377072 0,0.206203 0.07491,0.374924 0.166352,0.374924 0.267727,0 0.381298,-0.66486 0.163487,-0.957131 -0.396926,-0.532634 -0.908637,-5.492216 -0.53465,-5.182058 0.112646,0.09344 0.204811,0.781842 0.204811,1.529836 0,0.747991 0.07649,1.359979 0.169903,1.359979 0.09341,0 0.229539,0.473712 0.302444,1.05269 0.07292,0.578964 0.197817,1.225723 0.277626,1.437212 0.07978,0.211503 0.252099,0.890697 0.38289,1.509332 0.1308,0.618621 0.392101,1.546467 0.580677,2.061867 0.409598,1.119498 2.816248,4.436868 3.218814,4.436868 0.460629,0 0.392918,-2.284661 -0.2704,-9.123228 -0.09334,-0.962323 -0.260143,-2.818213 -0.370658,-4.1242 -0.596724,-7.051603 -0.725309,-7.45668 -3.492421,-11.0017577 -1.05407,-1.3504476 -1.91651,-2.5263832 -1.91651,-2.6131863 0,-0.2043603 1.212254,1.0105912 2.049001,2.0535516 0.358578,0.4469502 0.798646,0.8766272 0.97793,0.9548613 0.179285,0.078218 0.325981,0.2228875 0.325981,0.3214517 0,0.3731082 1.132352,1.0642763 1.492407,0.9109464 0.203676,-0.086767 0.372579,-0.1220093 0.375358,-0.078495 0.0033,0.043646 0.09138,1.147877 0.197077,2.453875 0.479209,5.925646 0.609118,7.15516 1.201729,11.372812 0.173852,1.237241 0.382868,2.755704 0.464493,3.37434 0.08161,0.61862 0.282717,2.024612 0.446889,3.124394 0.509282,3.411875 0.702409,6.842344 0.576961,10.248025 -0.06588,1.787148 -0.192672,3.643039 -0.281882,4.124187 -0.08921,0.481163 -0.300234,1.830905 -0.468953,2.999431 -0.168719,1.168526 -0.380177,2.518267 -0.46993,2.999415 -0.184108,0.986979 -0.609748,3.691039 -0.904935,5.748888 -0.108421,0.756108 -0.289664,2.318338 -0.402696,3.471636 -0.182079,1.857892 -0.170152,2.142795 0.104513,2.499513 0.285865,0.371239 0.334138,0.356009 0.619363,-0.195591 0.359252,-0.694759 1.105746,-3.23022 1.350902,-4.588291 0.09301,-0.51552 0.250365,-1.359098 0.349571,-1.874631 1.410886,-7.331769 1.498642,-8.191204 1.497188,-14.663217 -9.99e-4,-6.262191 -0.0098,-6.35061 -0.984954,-10.258103 -0.868892,-3.482166 -1.066805,-5.736914 -0.678554,-7.730866 0.110167,-0.565841 0.33073,-1.703667 0.490138,-2.528518 0.31482,-1.629147 1.092776,-4.946676 1.348101,-5.748875 0.08758,-0.274959 0.264626,-0.893581 0.393591,-1.374743 0.128965,-0.481162 0.38022,-1.324739 0.558316,-1.874644 0.178102,-0.5498925 0.547822,-1.7309121 0.821582,-2.6244804 0.45906,-1.4984125 2.01053,-5.7806553 2.62618,-7.24860917 0.50726,-1.20950493 0.28497,0.18620752 -0.30753,1.93086807 -0.59419,1.7495858 -0.83424,2.4836028 -1.37126,4.1929436 -0.17276,0.5499051 -0.38554,1.2247757 -0.47284,1.4997217 -0.26113,0.8223681 -1.06598,3.8714662 -1.550448,5.8738662 -2.158085,8.919441 -2.252928,11.060196 -0.725439,16.371837 0.81046,2.818256 1.155907,4.815971 1.155907,6.684569 0,2.874451 0.22667,5.474569 0.48904,5.609667 0.13488,0.06941 0.67372,-0.418773 1.19745,-1.084953 0.99829,-1.269814 3.498,-3.680482 5.7917,-5.585374 0.74489,-0.618634 2.17649,-1.948995 3.18132,-2.956367 1.00484,-1.007375 1.91793,-1.790913 2.02907,-1.741191 0.11116,0.04966 -0.33031,0.783632 -0.98104,1.630907 -1.2133,1.579784 -2.3793,2.80735 -6.11936,6.442526 -4.14451,4.028268 -5.09183,5.904622 -6.308974,12.496059 -0.361238,1.95627 -1.089727,5.373898 -1.331963,6.24879 -1.638677,5.918224 -1.728137,6.34758 -1.718478,8.248402 0.0087,1.706695 0.678175,4.866702 2.356595,11.122842 0.239718,0.893589 0.545933,2.111511 0.680465,2.706514 0.284541,1.25848 1.492465,2.99457 3.263385,4.690292 0.93162,0.892059 1.31526,1.117539 1.79585,1.055486 l 0.61116,-0.07893 0.0547,-1.95905 c 0.0472,-1.692984 -0.005,-2.100342 -0.39273,-2.999421 -0.69771,-1.622396 -0.75767,-2.309874 -0.30971,-3.551563 0.21602,-0.598818 0.49205,-1.628484 0.61339,-2.288219 0.20834,-1.132671 0.25804,-1.203665 0.89256,-1.274893 0.58776,-0.06612 0.69677,0.01165 0.87051,0.624886 0.10923,0.385163 0.24425,1.206475 0.30006,1.825099 0.0558,0.618609 0.23026,2.418296 0.3877,3.999232 0.15744,1.580935 0.33992,3.718019 0.4055,4.749069 0.16145,2.53815 0.70583,4.076168 2.19009,6.187402 1.38253,1.966594 1.68215,2.05524 2.42197,0.716502 0.86043,-1.556964 1.03328,-3.227244 0.66277,-6.403999 -0.23025,-1.974414 -0.31405,-2.274661 -1.78444,-6.394358 -0.6419,-1.798478 -1.2255,-3.582131 -1.29684,-3.963654 -0.25184,-1.346441 0.53151,-0.292907 1.50472,2.023696 2.1057,5.012354 3.38354,9.357079 3.20626,10.901505 -0.53613,4.670851 -0.56942,5.196227 -0.34818,5.493124 0.234,0.313979 1.01643,-0.120582 2.67387,-1.484921 0.84861,-0.698546 1.13193,-0.325251 0.47896,0.631031 -0.25051,0.366887 -0.68505,1.004516 -0.96565,1.416912 -0.93887,1.379951 -2.09187,3.737214 -2.43179,4.971723 -0.36363,1.320566 -0.34168,3.988326 0.0896,10.900206 0.10723,1.71843 0.17454,6.80288 0.14956,11.29879 -0.025,4.4959 0.0109,8.24937 0.0788,8.34103 0.24331,0.32647 2.48534,-2.48332 4.76535,-5.97211 1.22943,-1.88124 1.61768,-4.41941 1.46071,-9.54939 -0.11557,-3.77698 -0.26163,-5.17181 -0.78458,-7.49264 -0.38693,-1.71718 -0.57216,-5.45696 -0.30852,-6.22867 0.87885,-2.572517 1.1554,-5.446403 1.1554,-12.007013 v -5.281771 l -1.07953,-2.863445 c -0.59373,-1.574906 -1.32181,-3.65081 -1.61792,-4.613122 -0.29613,-0.962312 -0.59751,-1.862134 -0.66974,-1.999609 -0.18041,-0.343324 -1.34166,-5.060674 -1.8459,-7.498563 -0.39519,-1.910633 -0.78665,-2.874438 -1.16746,-2.874438 -0.40581,0 -2.7468,-1.53962 -2.7468,-1.806502 0,-0.106252 0.63775,-0.193122 1.41723,-0.193122 h 1.41724 l -0.12906,-0.687299 c -0.13546,-0.72127 -0.46113,-4.545736 -0.46681,-5.481977 -0.002,-0.378995 -0.52905,-1.136399 -1.72633,-2.482255 -2.20181,-2.475047 -6.59277,-8.267676 -6.43132,-8.484304 0.0677,-0.0909 0.40042,0.09824 0.73928,0.420242 0.57954,0.550784 4.35063,5.026043 6.37627,7.566896 0.50438,0.632677 1.01596,1.150306 1.13686,1.150306 0.25959,0 0.71523,-3.163892 1.03077,-7.157535 0.22002,-2.784737 0.39604,-3.628943 0.6772,-3.247839 0.25294,0.342901 0.059,7.159123 -0.24388,8.575311 -0.15231,0.711886 -0.29046,1.749867 -0.30701,2.306607 -0.0282,0.951831 0.0538,1.120752 1.3752,2.829867 2.54344,3.289726 4.52664,6.87554 6.0672,10.970115 0.38036,1.010938 1.72218,2.95544 2.46324,3.569636 0.88346,0.732216 2.49375,1.400121 3.37565,1.400121 0.39022,0 1.13693,0.132378 1.65935,0.294217 1.83651,0.568847 1.64977,0.102378 -1.83921,-4.594744 -1.76604,-2.37755 -3.27159,-4.466634 -3.34569,-4.642403 -0.24041,-0.570301 0.12387,-3.791991 0.52388,-4.63326 0.52729,-1.108994 0.87008,-2.115994 1.14534,-3.364783 0.27443,-1.244957 0.66068,-1.263659 0.5896,-0.02857 -0.0543,0.943891 -0.33492,2.098748 -1.04302,4.292948 -0.77666,2.406584 -0.0588,4.142101 3.1408,7.593379 2.69101,2.902678 6.48219,6.566144 6.65055,6.426513 0.47777,-0.396216 -0.35938,-3.835645 -2.15915,-8.870791 -0.91705,-2.56564 -1.10246,-3.552698 -0.55222,-2.939923 0.39471,0.439555 2.52977,6.270989 3.51214,9.592558 0.16263,0.549886 0.36877,1.224767 0.45807,1.499718 0.0893,0.27495 0.21513,0.781103 0.27959,1.124777 0.39036,2.080943 0.7261,3.50885 1.19627,5.087557 0.29256,0.982365 0.63531,2.292268 0.76167,2.910892 0.12635,0.618638 0.33595,1.574702 0.46575,2.124588 0.1298,0.549901 0.34482,1.505965 0.4778,2.124604 0.13298,0.618623 0.53215,1.912128 0.88705,2.87444 0.3549,0.962311 0.71071,2.087103 0.7907,2.499514 0.08,0.412426 0.29324,1.424718 0.47389,2.249569 0.22033,1.006074 0.33294,2.404738 0.34211,4.249192 0.0122,2.431081 -0.0391,2.894171 -0.44192,3.999211 -0.25057,0.68736 -0.77446,1.76315 -1.1642,2.39063 -0.80861,1.30188 -0.85095,1.48362 -0.34565,1.48362 0.20157,0 1.12487,-0.97253 2.07637,-2.18706 2.51471,-3.2099 4.82892,-7.447147 6.22026,-11.389146 0.51529,-1.459974 1.44445,-3.407476 2.49647,-5.232663 2.14515,-3.721588 2.25557,-4.022344 2.25557,-6.143364 0,-1.887182 -0.22841,-2.82762 -1.17926,-4.855627 -0.3381,-0.721118 -0.75419,-1.716867 -0.92464,-2.212782 -0.27169,-0.790483 -2.23691,-3.954946 -4.43062,-7.134307 -1.11913,-1.621955 -3.01065,-5.293239 -3.6795,-7.141574 -0.3344,-0.924082 -0.87185,-2.034237 -1.19437,-2.466998 -0.55947,-0.750728 -1.95026,-1.726707 -2.46059,-1.726707 -0.31955,0 -3.0205,-1.173625 -3.76193,-1.634644 -0.32283,-0.200731 -0.62764,-0.364981 -0.67737,-0.364981 -0.0497,0 -0.91719,-0.515854 -1.92771,-1.146354 -3.9139,-2.44201 -4.96046,-3.064822 -6.46137,-3.845131 -1.34204,-0.697721 -1.62385,-1.176335 -0.62814,-1.066853 0.70748,0.07769 1.14866,0.299293 3.48261,1.748532 0.97327,0.604326 2.18871,1.326729 2.70095,1.605318 0.95818,0.5211 1.08918,0.590378 2.51468,1.32976 0.46103,0.239132 1.00587,0.528587 1.21077,0.643276 0.75123,0.420413 1.96134,0.807431 2.06976,0.661935 0.0613,-0.08222 -0.18853,-0.503106 -0.55524,-0.935132 -2.20386,-2.596529 -4.0984,-8.125132 -5.87552,-17.145846 -0.11147,-0.565843 -0.20267,-1.268824 -0.20267,-1.56219 0,-0.909131 0.34677,-0.587454 0.57014,0.528895 0.42726,2.135308 0.75205,3.573321 0.91733,4.061718 0.093,0.274946 0.60786,1.962116 1.14401,3.749276 1.13967,3.798853 2.08948,5.983122 3.4052,7.830803 0.93207,1.30891 3.71667,4.291855 4.00647,4.291855 0.25799,0 2.00472,2.618445 2.34404,3.513828 1.60412,4.232948 3.51418,7.625068 4.11842,7.313921 0.35582,-0.183216 0.34644,-0.102655 0.93048,-7.987844 0.0989,-1.334511 0.48829,-2.366832 0.75682,-2.006139 0.0853,0.114524 0.15493,2.926243 0.15493,6.248405 0,5.936005 0.008,6.062325 0.46569,7.316509 0.25613,0.701925 1.10427,2.22037 1.88477,3.374346 0.7805,1.153962 1.63386,2.435554 1.89634,2.847979 0.82105,1.290082 0.94455,0.690362 0.65685,-3.189934 -0.2577,-3.475836 -0.24903,-3.682281 0.41706,-9.932518 0.10987,-1.031054 0.42002,-2.718224 0.68919,-3.749276 0.57186,-2.190437 0.62073,-4.628015 0.13602,-6.785414 -0.16533,-0.735913 -0.39444,-1.787936 -0.50913,-2.337828 -0.68069,-3.263776 -2.79003,-6.556786 -8.15147,-12.725661 l -2.51468,-2.893391 -2.36588,-0.0013 c -2.09723,-9.46e-4 -4.24006,-0.409028 -4.58544,-0.872476 -0.27355,-0.367062 0.31431,-0.399618 2.0564,-0.114 2.0005,0.328085 2.93906,0.213959 2.93906,-0.35737 0,-0.183151 -0.48199,-1.04001 -1.07107,-1.904145 -1.37837,-2.021942 -2.23108,-3.603942 -2.67357,-4.960198 -0.37994,-1.164454 -0.47046,-2.541239 -0.16708,-2.541239 0.10245,0 0.18626,0.221887 0.18626,0.493069 0,1.990374 2.91468,6.513765 5.55656,8.623485 1.53472,1.225549 2.05695,1.371299 2.48675,0.694051 0.63408,-0.999111 0.72741,-1.844851 0.53145,-4.81585 -0.10408,-1.578582 -0.19003,-3.1591 -0.19089,-3.512226 -0.002,-0.987298 -1.23729,-3.472476 -2.93406,-5.905035 -1.86497,-2.673641 -2.96612,-4.748749 -3.86557,-7.284582 -0.37363,-1.0534126 -0.7572,-2.110588 -0.85238,-2.349307 -0.22995,-0.5767885 -0.22124,-1.6905603 0.0132,-1.6905603 0.10245,0 0.18627,0.1651697 0.18627,0.3670355 0,0.4947096 1.38137,4.1189138 2.34604,6.1550728 0.86013,1.815526 1.8842,3.47596 2.1438,3.47596 0.21708,0 0.21393,-0.638724 -0.005,-1.190659 -0.31074,-0.780307 -0.75855,-3.010788 -0.75855,-3.778095 0,-0.412847 -0.0839,-0.820153 -0.18628,-0.905114 -0.10245,-0.08489 -0.18627,-0.604391 -0.18627,-1.1542834 0,-1.2239223 0.29706,-1.0750093 0.4297,0.2153994 0.0531,0.516388 0.23891,1.557506 0.41296,2.313627 0.17405,0.756095 0.35956,1.712157 0.41224,2.124589 0.0526,0.41242 0.15757,0.86232 0.23306,0.999793 0.0755,0.137475 0.28501,0.89254 0.4656,1.677919 0.26711,1.161613 0.63726,1.884243 1.98444,3.874243 0.91084,1.345457 2.15366,3.346122 2.76183,4.445906 1.65075,2.985199 2.07406,3.637992 2.25941,3.484275 0.2557,-0.212063 0.20077,-3.03272 -0.0948,-4.859099 -0.14454,-0.893513 -0.56364,-3.190628 -0.93137,-5.104691 -0.65963,-3.433512 -0.83795,-5.393185 -0.49074,-5.393185 0.0978,0 0.23149,0.42179 0.29707,0.937323 0.12902,1.014234 0.2473,1.574218 0.85784,4.061705 0.21933,0.89358 0.46536,2.074599 0.54674,2.624504 0.0814,0.549892 0.24297,1.562192 0.35908,2.249569 0.14077,0.833355 0.17121,2.675604 0.0914,5.529258 -0.0954,3.41066 -0.0662,4.45095 0.14437,5.124006 0.33876,1.083379 1.66244,2.803918 2.58803,3.363981 0.69477,0.420401 0.72951,0.418919 0.98563,-0.04204 0.87821,-1.580545 1.7764,-8.895976 1.77574,-14.462607 -3.8e-4,-3.484209 0.35211,-2.280323 0.49389,1.686649 0.0673,1.883669 0.19936,3.424864 0.29346,3.424864 0.0941,0 0.85643,-0.877551 1.69414,-1.950116 0.83771,-1.072581 1.94222,-2.32723 2.45446,-2.788128 0.51225,-0.460886 1.6535,-1.5517 2.5361,-2.42403 0.88261,-0.872317 1.69987,-1.586031 1.81616,-1.586031 0.8448,0 -0.66553,1.763201 -5.23454,6.110957 -2.07221,1.97186 -3.37959,4.464285 -3.87448,7.386429 -0.12805,0.756108 -0.48143,2.499528 -0.7853,3.874256 -0.30388,1.374729 -0.68406,3.540939 -0.84486,4.813781 -0.25306,2.003202 -0.25898,2.591148 -0.044,4.374159 0.1366,1.132927 0.31336,2.228598 0.39279,2.434815 0.0794,0.206203 0.39535,1.218516 0.70203,2.249569 0.69708,2.343527 0.96117,2.450511 2.36067,0.956184 1.15753,-1.235949 1.33681,-1.793944 1.0056,-3.129988 -0.14311,-0.577349 -0.24148,-2.374842 -0.25054,-4.5778 -0.0143,-3.471487 0.009,-3.702184 0.53182,-5.373963 0.30071,-0.960709 0.74078,-2.166317 0.97794,-2.679114 0.23715,-0.512797 0.43119,-0.995627 0.43119,-1.072967 0,-0.07742 0.35092,-0.78255 0.77983,-1.567169 1.80152,-3.295586 4.15462,-6.051585 8.5338,-9.994864 2.92357,-2.632582 3.4816,-3.348325 4.32999,-5.553951 1.00516,-2.613106 1.15409,-2.918793 2.93464,-6.02318 0.74351,-1.296295 3.21106,-4.6309245 3.78158,-5.1103779 0.41011,-0.3446491 0.56961,-0.3732277 0.74508,-0.1334849 0.17446,0.2383461 -0.0421,0.6427023 -0.99025,1.8493106 -2.68907,3.4219132 -5.64515,8.9468182 -5.34623,9.9921022 0.0806,0.282073 0.44886,0.126669 1.73348,-0.731361 0.89709,-0.599226 1.67329,-1.032816 1.72491,-0.963538 0.22175,0.297558 -1.06682,1.666948 -2.58987,2.752314 -0.90535,0.645145 -1.76924,1.357403 -1.91977,1.58276 -0.15053,0.225371 -0.75561,1.703255 -1.34463,3.284201 -0.58902,1.580944 -1.3506,3.408978 -1.6924,4.062291 -1.23953,2.369276 -0.68868,2.267096 1.8125,-0.336253 3.80898,-3.964557 6.56318,-6.434238 7.55759,-6.776845 0.21916,-0.07542 0.51255,-0.03631 0.65195,0.08703 0.2005,0.177504 0.15615,0.327777 -0.21222,0.719133 -0.25613,0.272115 -0.56692,0.607262 -0.69066,0.744788 -0.12375,0.137519 -0.25882,0.250024 -0.30018,0.250024 -0.26856,0 -4.37701,3.902675 -4.6842,4.44959 -1.23311,2.195349 -3.02747,3.752306 -5.9477,5.160834 -1.62304,0.782844 -2.68065,1.716416 -2.92842,2.584942 -0.10625,0.372441 -0.27792,1.295788 -0.3815,2.051882 -0.29794,2.174872 -1.02214,4.172828 -2.53679,6.998651 -1.29961,2.42459 -1.61421,3.236814 -1.37708,3.555021 0.29652,0.397856 1.32873,-0.188356 3.01654,-1.713132 2.38107,-2.15106 3.85683,-3.330131 5.66703,-4.527677 2.4882,-1.646083 3.15016,-1.903543 3.97994,-1.547908 0.37839,0.162167 0.77181,0.401326 0.87426,0.531445 0.27411,0.348133 -0.42425,0.952779 -1.10045,0.952779 -1.13286,0 -4.25045,1.948835 -6.88729,4.305309 -0.96536,0.862707 -2.03582,1.792234 -2.37877,2.065604 -0.34296,0.273357 -0.91696,0.733123 -1.27553,1.02171 -0.83517,0.672121 -2.43468,1.857345 -3.66332,2.714486 -0.52931,0.36925 -1.01096,0.841256 -1.07034,1.048887 -0.0918,0.320957 0.0523,0.352499 0.96237,0.210541 1.81337,-0.282888 6.98698,-1.809626 7.96243,-2.349707 0.20491,-0.113461 0.607,-0.332757 0.89355,-0.487342 0.28657,-0.154586 0.95715,-0.261424 1.49019,-0.237411 l 0.96916,0.04364 -0.83824,0.09705 c -0.93242,0.107985 -1.35769,0.461806 -0.95573,0.795165 0.13856,0.114931 0.89227,0.340137 1.67491,0.500529 3.07055,0.629247 5.61481,1.477897 7.29056,2.431758 0.35857,0.204107 0.86151,0.489091 1.11762,0.633318 1.15809,0.652085 2.36277,1.579383 4.19114,3.226162 l 1.49019,1.342173 1.86272,0.130951 c 1.3023,0.09157 1.73354,0.193376 1.43336,0.338509 -0.69725,0.337109 -0.36073,0.778427 0.72326,0.948509 0.68322,0.107184 0.46756,0.132145 -0.66643,0.07729 -2.22797,-0.107853 -3.15039,-0.51273 -6.87364,-3.016916 -1.73152,-1.164575 -3.26129,-2.059183 -3.39949,-1.98801 -0.16939,0.08716 -0.25128,0.584742 -0.25128,1.526711 0,0.867911 -0.0706,1.338796 -0.18628,1.242862 -0.10245,-0.08489 -0.18627,-0.701033 -0.18627,-1.369055 0,-0.66801 -0.049,-1.386009 -0.10896,-1.595563 -0.14334,-0.501237 -3.26601,-1.774867 -5.29295,-2.158828 -1.79043,-0.33915 -6.69093,-0.211021 -8.00971,0.209434 -0.82445,0.262852 -2.81773,0.823583 -4.098,1.152829 -1.85449,0.476917 -2.6972,0.982866 -3.55561,2.134722 -1.16028,1.556944 -2.07048,4.171972 -1.99489,5.731387 l 0.0555,1.14406 0.79676,-0.06781 c 1.97132,-0.167734 6.43445,-3.273896 9.48016,-6.597792 0.7347,-0.801813 1.44719,-1.454606 1.58332,-1.45064 0.26128,0.008 -1.07558,1.769474 -2.4601,3.242166 -0.45234,0.481161 -1.1598,1.273763 -1.57212,1.761345 -1.03737,1.226765 -2.77524,2.66722 -5.40647,4.481225 -1.2294,0.84757 -2.40292,1.761519 -2.60783,2.030985 -0.357,0.469513 -0.37242,0.81738 -0.36985,8.338598 9.9e-4,4.31675 0.0713,7.940779 0.15521,8.053352 0.22927,0.30763 6.88952,0.231334 8.59691,-0.09845 0.8196,-0.158329 2.24458,-0.409498 3.16664,-0.558172 3.23606,-0.52178 4.66268,-0.845429 5.30877,-1.204393 0.37896,-0.210538 1.88469,-2.016138 3.59599,-4.312148 2.83308,-3.801044 4.26874,-5.244883 5.21519,-5.244883 0.16425,0 0.49119,-0.10165 0.7265,-0.225902 0.23535,-0.124222 1.14039,-0.413925 2.01122,-0.643745 0.87082,-0.229819 1.8767,-0.513653 2.23527,-0.63074 1.45532,-0.47525 2.82872,-0.786011 2.92181,-0.661104 0.1387,0.186116 -1.00699,0.798142 -1.89732,1.01353 -1.33624,0.32327 -2.14213,0.72074 -2.14213,1.056505 0,0.181136 0.16733,0.6976 0.37186,1.1477 0.58515,1.287869 0.44982,1.304514 -0.66834,0.08228 -0.57287,-0.626182 -1.18059,-1.137884 -1.35048,-1.137112 -0.4641,0.0013 -1.70275,0.491678 -2.56096,1.012248 -0.70784,0.429363 -3.22951,3.641913 -4.20741,5.36012 -0.23472,0.412426 -0.57478,0.967904 -0.75568,1.234408 -0.18089,0.266489 -0.32889,0.744536 -0.32889,1.062301 0,0.480013 0.0981,0.577746 0.58017,0.577746 0.55935,0 1.88892,0.814176 3.05215,1.869021 0.63404,0.575008 0.89345,0.787526 2.3284,1.907629 1.061,0.828215 1.61137,1.238718 3.81858,2.848154 1.1641,0.848807 3.20017,2.696042 3.44605,3.12641 0.0512,0.08971 0.80562,0.770123 1.67645,1.512139 0.87082,0.742002 2.25982,1.970017 3.08669,2.728897 1.80973,1.66096 1.89346,1.727411 4.36421,3.463618 3.09262,2.173156 4.05391,3.203056 5.09303,5.456426 0.62206,1.34896 0.77215,2.17058 0.46004,2.51817 -0.3433,0.38231 -0.70214,-0.0205 -1.50197,-1.68617 -1.0485,-2.18354 -2.1073,-3.30418 -4.79619,-5.076329 -0.97328,-0.641473 -2.07513,-1.420495 -2.44855,-1.731212 -0.79517,-0.661599 -5.18385,-4.566579 -6.7084,-5.969 -1.19694,-1.101069 -1.46059,-1.184064 -1.46059,-0.459814 0,1.121224 0.99866,3.210599 2.97329,6.220621 1.83976,2.804454 2.42483,3.848314 2.42681,4.329874 0.003,0.73951 -0.3029,0.49625 -1.24021,-0.98605 -1.29652,-2.050334 -2.90027,-4.393733 -3.25212,-4.751969 -0.58237,-0.592891 -1.41273,-2.710038 -1.64638,-4.197566 -0.41681,-2.653839 -0.57309,-3.142007 -1.0961,-3.423802 -1.40022,-0.754453 -3.28792,-2.090715 -4.8711,-3.448137 -0.97328,-0.834477 -2.30702,-1.860473 -2.96387,-2.279991 -1.39144,-0.888666 -2.16625,-0.892555 -4.58016,-0.02301 -0.8196,0.295251 -2.62179,0.706089 -4.00486,0.912986 -1.72298,0.257752 -3.15977,0.64941 -4.56368,1.244049 -1.92418,0.814992 -4.89427,1.693915 -8.10286,2.397835 -0.76837,0.168567 -1.64851,0.478746 -1.95586,0.689298 -0.79345,0.543537 -2.73334,3.270511 -2.66503,3.746301 0.0937,0.652191 1.05422,0.835293 2.41137,0.459639 1.09981,-0.304426 1.96356,-0.833138 4.40393,-2.695737 2.08533,-1.59161 3.86593,-2.559034 5.26097,-2.858377 0.9539,-0.204669 2.79578,0.31577 3.89417,1.10034 4.71603,3.368608 5.56479,3.844645 7.65026,4.290755 1.68294,0.360013 2.88527,0.320868 4.19113,-0.136456 0.6147,-0.215256 1.39083,-0.450872 1.72475,-0.523614 0.33391,-0.07282 0.65318,-0.23231 0.70951,-0.354581 0.12416,-0.269577 0.63981,-0.297771 0.63778,-0.03481 -0.002,0.231917 -0.83439,0.79255 -1.58186,1.065141 -3.39649,1.238675 -3.73402,1.307151 -4.85209,0.984375 -0.50729,-0.146446 -1.25765,-0.360785 -1.66745,-0.476299 -1.35517,-0.381989 -2.90486,-1.184136 -5.86759,-3.037269 -2.09272,-1.308942 -2.18123,-1.339947 -3.837,-1.343879 -0.93219,-0.0013 -1.89615,0.124078 -2.14214,0.28082 -2.32218,1.478877 -3.76098,2.505266 -3.99189,2.847644 -0.24614,0.364964 -0.24051,0.452415 0.0506,0.785589 0.80927,0.926501 5.88875,1.895381 8.43997,1.609872 1.21115,-0.135582 1.48056,-0.101359 1.48056,0.188344 0,0.194723 -0.13259,0.422314 -0.29466,0.50576 -0.52901,0.272402 -5.73005,0.159393 -7.34741,-0.15964 -2.41207,-0.475775 -5.67662,-0.395474 -6.70093,0.164825 -0.46103,0.252188 -1.41352,0.610075 -2.11666,0.795317 -0.70313,0.185242 -1.40607,0.478935 -1.56208,0.652687 -0.43736,0.487061 -1.03512,1.899079 -1.61821,3.822538 -0.29171,0.962312 -1.02143,2.740592 -1.62159,3.951742 -0.60015,1.21113 -1.09118,2.41767 -1.09118,2.6812 0,0.26353 0.1886,0.63271 0.41912,0.82038 0.42616,0.34697 0.69228,0.45453 3.49261,1.4117 0.87082,0.29765 1.87669,0.65771 2.23526,0.80014 2.87143,1.14055 6.86257,1.47485 10.95721,0.91782 3.66122,-0.49807 6.29105,0.25066 9.08551,2.58669 2.53625,2.12019 4.66555,3.04801 7.61876,3.31979 0.92205,0.0849 2.2213,0.33026 2.88722,0.54534 1.59539,0.51526 4.3888,0.7029 5.34122,0.35876 0.4156,-0.15016 1.08124,-0.61938 1.47924,-1.0427 1.34148,-1.42688 2.17318,-2.34995 2.75378,-3.0563 0.95064,-1.15652 3.0891,-2.92829 3.51708,-2.91396 0.12495,0.004 0.0596,0.13514 -0.14537,0.29108 -0.2049,0.1559 -0.41445,0.35719 -0.46567,0.44728 -0.0512,0.0901 -0.55417,0.61913 -1.11763,1.17561 -1.80809,1.7857 -2.72392,3.00371 -2.4958,3.31926 0.15287,0.21147 0.39023,0.19272 0.93135,-0.0735 0.39942,-0.19655 1.98355,-0.66173 3.5203,-1.03374 1.53675,-0.37201 3.14556,-0.77937 3.5751,-0.90524 1.01484,-0.29741 1.5474,-0.29014 1.5474,0.0211 0,0.13747 -0.19278,0.24994 -0.42842,0.24994 -0.23564,0 -0.50807,0.0982 -0.6054,0.21801 -0.22361,0.27552 -2.28001,0.91312 -6.60336,2.04739 -1.07573,0.28223 -2.16541,0.65926 -2.42154,0.83781 -1.76755,1.23232 -2.4011,1.61328 -2.93379,1.76413 -0.33297,0.0942 -0.60539,0.27355 -0.60539,0.39839 0,0.47801 3.24574,2.92679 5.13067,3.87085 1.57973,0.79119 3.87545,1.03599 5.85941,0.62477 2.40225,-0.49788 4.03533,-0.61549 3.79481,-0.27326 -0.26409,0.37573 -1.27944,0.72022 -2.95658,1.00309 -1.92489,0.32468 -2.32841,0.58584 -2.32841,1.50698 0,1.44715 1.57531,3.17717 4.19115,4.60274 2.25015,1.22631 2.65711,1.50738 2.88653,1.99353 0.2795,0.59229 0.26623,0.58721 -2.70526,-1.03676 -3.62732,-1.9824 -4.30508,-2.63338 -5.26878,-5.06063 l -0.54557,-1.37419 -1.74716,-0.39107 c -2.07853,-0.46528 -2.91213,-0.81968 -4.16398,-1.7704 -3.21188,-2.43921 -6.25182,-3.98093 -7.97515,-4.04459 -1.07972,-0.0399 -1.161,-0.004 -1.21821,0.53798 -0.0338,0.3194 0.0817,0.98532 0.25664,1.47982 0.24752,0.69993 0.29226,1.26997 0.20199,2.57342 -0.11033,1.59285 -0.0889,1.72019 0.44187,2.61629 0.66355,1.1204 0.66397,1.12314 0.17098,1.12314 -0.67634,0 -1.43038,-1.27745 -1.56203,-2.64634 -0.26071,-2.71072 -0.47851,-3.3685 -1.36518,-4.12304 -1.0023,-0.85295 -2.79835,-1.61837 -5.81327,-2.47744 -1.26949,-0.36172 -2.70894,-0.93827 -3.44642,-1.38042 -2.4826,-1.48841 -1.439,-1.37045 -12.12278,-1.37045 -6.59729,0 -9.76387,0.0839 -9.76387,0.25839 0,0.3146 0.72802,1.28568 1.96327,2.61874 0.50817,0.54843 0.96586,1.05588 1.01708,1.12768 0.33772,0.47335 2.30884,2.57898 3.13924,3.35344 0.5484,0.51146 1.59618,1.60798 2.32841,2.43674 1.87437,2.1215 5.77566,5.83729 6.90262,6.57446 0.84425,0.55221 3.12648,1.58501 4.67368,2.11502 0.30735,0.10529 0.89411,0.40067 1.30392,0.65641 l 0.74508,0.465 -0.8932,0.0842 c -0.83086,0.0785 -3.21984,-0.43029 -4.5087,-0.96011 -3.30662,-1.35926 -4.44397,-2.14697 -6.5085,-4.50774 -0.85296,-0.97532 -3.97787,-4.38966 -4.55251,-4.9741 -0.33792,-0.34369 -0.95442,-0.99527 -1.37,-1.44797 -1.07703,-1.17319 -1.44631,-1.4122 -1.44631,-0.93612 0,0.3728 0.91115,1.75114 4.38494,6.63327 0.92926,1.306 2.27167,3.21791 2.98315,4.24869 0.71146,1.03079 1.35645,1.91187 1.4333,1.95796 0.0769,0.046 0.1397,0.1869 0.1397,0.31292 0,0.59634 -0.32622,0.2662 -3.06115,-3.09791 -0.91525,-1.1258 -1.75225,-2.04694 -1.85997,-2.04694 -0.23491,0 -0.15781,3.66676 0.0959,4.5623 0.25704,0.90717 0.20299,1.31158 -0.1753,1.31158 -0.85968,0 -1.32987,-1.80812 -1.33246,-5.12401 l -9.9e-4,-2.24957 -0.88407,-0.95736 c -0.90964,-0.98502 -1.76209,-2.03768 -4.98546,-6.15637 -2.17508,-2.7792 -2.94172,-3.36107 -5.46623,-4.1488 -1.42914,-0.44593 -3.28102,-0.39326 -4.40283,0.12525 -0.30735,0.14199 -1.2294,0.54591 -2.049,0.89746 -2.47202,1.06029 -3.9861,2.01419 -5.33553,3.36141 -0.48458,0.48377 -1.11351,1.10455 -1.39766,1.3795 -0.49875,0.48259 -2.00468,2.09019 -3.00502,3.20788 -1.95388,2.18312 -3.6172,4.38224 -6.83928,9.04249 -3.10203,4.48662 -6.07976,7.9937 -8.46593,9.97092 -3.39098,2.80986 -4.36907,4.23254 -6.28894,9.14765 -1.24904,3.19769 -1.79228,5.35865 -2.03033,8.07647 -0.15673,1.78936 0.022,1.95161 1.69636,1.53883 1.40446,-0.34629 2.24782,-0.58989 4.28426,-1.23748 0.71715,-0.22807 1.63919,-0.51191 2.049,-0.63075 2.77113,-0.8037 4.67708,-1.87584 6.33326,-3.56262 1.38069,-1.40619 2.32025,-2.4123 2.70096,-2.89224 1.15471,-1.45569 1.81715,-1.86844 2.72944,-1.70064 0.97802,0.17987 1.36855,0.51368 1.36855,1.16982 0,0.2476 -0.98491,1.8734 -2.1887,3.61289 -1.20379,1.73948 -2.26596,3.38378 -2.3604,3.65401 -0.22627,0.64745 0.0868,1.0446 1.34281,1.70325 1.37898,0.7232 2.65055,0.67352 3.90907,-0.1527 1.20046,-0.78813 1.71709,-1.767 1.71808,-3.25537 9.9e-4,-1.7893 0.70216,-4.76174 1.43229,-6.07352 0.7671,-1.37819 0.85553,-1.87397 0.72094,-4.04195 -0.20572,-3.31404 0.46771,-4.84113 0.72319,-1.63993 0.069,0.86552 0.19569,1.72589 0.28139,1.91194 0.27947,0.6068 1.00275,0.091 2.81105,-2.00476 3.58223,-4.1517 3.96996,-4.60373 4.16785,-4.85908 0.82108,-1.05949 3.70787,-4.11657 3.787,-4.01037 0.0543,0.0728 -0.47876,0.92918 -1.18436,1.90323 -1.7196,2.37382 -1.74101,2.59547 -0.22941,2.37543 1.50163,-0.21859 3.49522,-1.12089 5.30972,-2.40321 1.4266,-1.0082 2.80288,-2.19214 3.26243,-2.80654 0.13575,-0.1815 0.49828,-0.54304 0.80562,-0.80343 l 0.55883,-0.47345 -0.37256,0.61263 c -0.2049,0.33694 -0.49826,0.74277 -0.65195,0.90186 -0.15367,0.15906 -0.48896,0.54067 -0.74509,0.84803 -2.15755,2.58891 -7.46085,5.7413 -9.65876,5.7413 -1.20855,0 -2.44417,1.07532 -4.81742,4.19251 -2.54823,3.347 -3.82092,5.29749 -4.27738,6.55541 -0.46574,1.2835 -0.45649,4.27255 0.0154,4.97254 0.19517,0.28953 0.42971,0.5264 0.5212,0.5264 0.0915,0 0.64429,-0.41771 1.22847,-0.92827 0.58417,-0.51053 1.22977,-1.05184 1.43466,-1.20287 0.20491,-0.15105 1.96518,-1.7898 3.91173,-3.64168 3.68746,-3.50814 4.27951,-3.97531 5.03813,-3.97531 0.76406,0 0.52124,0.44853 -0.89356,1.65056 -1.99687,1.69658 -2.23363,2.22508 -1.11763,2.49491 0.78102,0.18886 1.21183,0.54794 1.05801,0.8819 -0.0561,0.12189 -0.83057,0.22475 -1.72096,0.22858 l -1.61891,0.007 -2.04899,2.2609 c -1.12695,1.2435 -2.23283,2.47132 -2.4575,2.72849 -0.22469,0.25718 -1.39821,1.47515 -2.60783,2.7066 -2.86998,2.92182 -3.02949,3.27918 -2.22279,4.98011 1.22877,2.59097 3.94577,4.9749 6.82244,5.98613 1.04864,0.36863 1.21982,0.41596 4.74996,1.31325 3.82818,0.97306 10.11679,0.91678 14.52926,-0.13005 0.92204,-0.21873 2.20376,-0.49861 2.84825,-0.62193 0.64449,-0.12334 1.23455,-0.27627 1.31125,-0.33988 0.0767,-0.0635 1.40812,-0.29333 2.95873,-0.51055 2.32965,-0.32633 2.9916,-0.5124 3.81126,-1.07123 1.19512,-0.81485 3.82633,-4.29446 7.51149,-9.93349 2.78024,-4.25433 5.54748,-7.73989 8.05757,-10.14913 0.84943,-0.8153 1.58268,-1.48236 1.62945,-1.48236 0.0468,0 0.5524,-0.40117 1.12361,-0.89148 1.386,-1.18971 4.51685,-3.3577 4.84896,-3.3577 0.14583,0 0.85888,-0.73111 1.58451,-1.62468 1.30164,-1.60285 1.70723,-1.88439 1.95132,-1.35442 0.34539,0.74988 -1.81403,2.80416 -6.62202,6.29959 -2.31824,1.68539 -4.29669,3.39513 -5.48619,4.74109 -2.2105,2.50126 -5.78019,7.5631 -6.75883,9.58406 -0.89197,1.84196 -2.23216,4.29092 -2.59543,4.74268 -0.47901,0.59568 -0.56703,1.10714 -0.19053,1.10714 0.2112,0 3.44955,-1.60319 4.50658,-2.23103 2.57762,-1.53106 6.52705,-3.54479 7.17938,-3.6606 1.04006,-0.18466 5.99325,0.27418 6.93076,0.64203 1.16664,0.45774 0.85153,0.82735 -0.55882,0.65547 -0.69153,-0.0842 -1.91781,-0.22518 -2.72506,-0.31307 -2.58355,-0.2813 -5.35309,0.65333 -8.40473,2.83629 -0.92204,0.65959 -3.81391,2.6256 -6.42639,4.36893 -4.80614,3.20717 -6.3246,3.95762 -9.4999,4.6951 -0.66593,0.15466 -1.75562,0.55035 -2.42155,0.87931 -0.66591,0.32897 -1.7137,0.78052 -2.32841,1.00347 -2.25515,0.81789 -2.60117,1.20795 -1.6668,1.87897 0.7498,0.53845 1.60493,0.36661 2.70352,-0.54329 1.57674,-1.30588 2.12691,-1.49414 5.01715,-1.71682 1.48552,-0.11447 3.14102,-0.28862 3.67888,-0.38702 1.19632,-0.21887 1.31385,0.17652 0.18626,0.62659 -1.44201,0.57558 -1.70431,0.76394 -1.48105,1.06353 0.35387,0.47483 1.87675,0.66984 5.34621,0.68453 3.02323,0.0131 7.01371,0.35997 7.72509,0.67204 0.2414,0.10588 0.2414,0.14811 0,0.35298 -0.596,0.50578 -9.75431,0.15294 -13.40639,-0.5165 -0.76838,-0.14083 -2.11073,-0.32346 -2.98303,-0.40582 l -1.58598,-0.14972 -0.69661,0.96235 c -1.40859,1.94599 -1.13082,2.4245 2.28525,3.93689 3.30655,1.46391 6.86969,2.32408 10.52439,2.54061 2.52569,0.14967 4.76511,0.50442 5.40191,0.85574 0.2049,0.11301 0.74976,0.41161 1.21078,0.6635 1.2443,0.67981 2.22791,1.44347 2.22372,1.72647 -0.007,0.37899 -0.48131,0.25263 -2.31686,-0.61552 -1.43912,-0.68065 -2.08521,-0.82801 -4.56368,-1.04089 -6.55149,-0.56276 -7.77299,-0.6975 -8.6599,-0.95525 -0.51127,-0.14859 -1.03432,-0.21622 -1.16234,-0.15029 -0.2214,0.11403 2.03687,6.44249 3.77562,10.58062 0.3628,0.86343 0.60517,1.68812 0.53859,1.83265 -0.19935,0.43284 -1.14334,-0.98217 -2.26991,-3.40253 -2.12469,-4.56482 -2.62517,-5.52593 -3.51423,-6.74869 -0.49977,-0.68738 -1.07633,-1.41849 -1.28122,-1.62469 -0.48672,-0.48984 -2.89002,-2.06605 -4.19114,-2.74881 -1.18434,-0.62145 -5.63618,-3.51694 -5.77445,-3.7557 -0.0512,-0.0884 -0.57121,-0.46159 -1.15553,-0.8292 -1.03755,-0.65275 -1.18788,-0.67421 -6.42641,-0.91697 -5.33637,-0.24729 -5.72031,-0.28848 -7.31987,-0.78509 -1.16119,-0.36051 -1.72225,-0.64127 -3.4962,-1.7496 -0.84721,-0.5293 -1.57559,-0.96236 -1.61865,-0.96236 -0.18643,0 -3.6934,-3.04669 -5.27145,-4.57957 -2.27929,-2.21406 -3.96291,-3.62923 -5.4764,-4.60318 -1.5836,-1.01907 -5.1099,-2.59254 -5.83805,-2.60498 -0.30735,-0.006 -1.48087,0.40695 -2.60781,0.91601 -1.84345,0.83271 -2.49904,1.18687 -4.74995,2.56603 -2.20171,1.34902 -4.03074,3.56153 -5.04684,6.10501 l -0.62953,1.57579 -0.0614,5.81063 c -0.0734,6.94553 0.0268,7.89881 1.44267,13.71421 0.30506,1.25298 0.65228,2.60273 0.77161,2.99942 0.32368,1.07589 0.48087,1.6284 0.73856,2.5959 0.12816,0.48115 0.33786,1.21227 0.466,1.62467 0.28732,0.92473 1.93307,6.87329 2.55867,9.24822 0.64248,2.4391 1.43673,5.96097 1.43673,6.37079 0,0.18833 0.0791,0.68784 0.17564,1.11001 0.63498,2.77501 2.08836,12.75266 2.80607,19.26403 1.04421,9.4734 1.17602,13.0862 0.77397,21.21245 -0.20312,4.10543 -0.38968,6.54673 -0.79681,10.42626 -0.19469,1.85534 -0.0878,3.05665 0.40941,4.60428 0.0883,0.27495 0.33169,1.0984 0.54079,1.82988 0.68795,2.40669 1.8975,5.04038 2.86392,6.23594 0.64885,0.80267 2.55291,2.30719 2.91991,2.30719 0.37308,0 0.92463,0.77059 0.92463,1.29179 0,0.20768 -0.23051,0.53197 -0.51225,0.72061 -0.72706,0.48681 -5.92668,0.54968 -8.42883,0.10194 z M 90.469022,170.09365 c 1.572624,-0.70526 2.596514,-3.18156 4.171561,-10.08902 0.28212,-1.23726 0.578437,-2.53077 0.658487,-2.87445 0.0801,-0.34368 0.372287,-1.63718 0.649426,-2.87444 1.774164,-7.9206 1.787025,-7.95012 5.766744,-13.24745 1.85905,-2.47452 3.58858,-4.94903 3.84342,-5.49893 1.18943,-2.5665 2.45721,-7.14942 2.4813,-8.96967 0.0129,-0.97662 0.003,-0.9909 -1.01144,-1.45206 -2.38844,-1.08577 -6.11384,-3.77765 -8.264862,-5.97198 -0.873321,-0.89091 -1.892168,-2.81553 -2.826612,-5.3395 -0.638399,-1.72438 -3.143179,-5.26395 -5.815799,-8.21848 -2.194284,-2.42575 -7.615872,-7.593598 -9.077759,-8.652914 -1.462375,-1.059695 -2.253681,-2.262501 -1.488439,-2.262501 0.328786,0 7.201916,4.486657 8.566796,5.592255 0.512248,0.41494 1.685767,1.55667 2.607822,2.53719 1.962934,2.08744 3.339283,3.36833 3.61931,3.36833 0.440117,0 0.188199,-2.30907 -0.481315,-4.41193 -0.137929,-0.43318 -0.250778,-0.91274 -0.250778,-1.06567 0,-0.15296 -0.07695,-0.47337 -0.171041,-0.712089 -0.09409,-0.238703 -0.502326,-1.33699 -0.907229,-2.440651 -0.404894,-1.103631 -1.032334,-2.627829 -1.394284,-3.387088 -0.361961,-0.75926 -0.687155,-1.655936 -0.722658,-1.992619 -0.05332,-0.505512 0.02298,-0.625672 0.43795,-0.689953 0.664185,-0.102961 1.598665,1.093656 2.403339,3.077245 1.101394,2.715047 2.777014,7.351875 3.816254,10.560455 0.144723,0.44679 0.388858,1.19491 0.542535,1.66247 0.153666,0.46758 0.279408,1.02332 0.279408,1.23501 0,0.21169 0.08389,0.45441 0.186268,0.53935 0.102451,0.0849 0.186268,0.32569 0.186268,0.53492 0,0.64673 1.272641,3.82268 2.132936,5.32293 1.32561,2.31163 2.51723,3.28441 5.78366,4.72148 2.08556,0.91758 2.82407,1.13282 2.94983,0.85975 0.0875,-0.18979 -0.56145,-3.13844 -0.97712,-4.44042 -0.0878,-0.27494 -0.39387,-1.28725 -0.68019,-2.24956 -0.61142,-2.05493 -1.36829,-3.72247 -2.68318,-5.91156 -1.20534,-2.00672 -1.23244,-2.79902 -0.0995,-2.90923 0.66918,-0.0651 0.84162,0.0513 1.69266,1.14279 0.96254,1.23448 2.49847,3.84977 2.49847,4.25424 0,0.12204 0.18,0.43615 0.40001,0.69804 l 0.40002,0.47615 -0.12146,-2.93747 c -0.34205,-8.272856 -1.35349,-10.978991 -5.72826,-15.325989 -1.44334,-1.434169 -2.69169,-2.715222 -2.77376,-2.846435 -0.0512,-0.08199 -0.47034,-0.536779 -0.93137,-1.010821 -0.461022,-0.474057 -0.880139,-0.93173 -0.931354,-1.017069 -0.05123,-0.08534 -0.70599,-0.787555 -1.455035,-1.560533 -1.972414,-2.035433 -4.530503,-3.588932 -7.206642,-4.376589 -1.391896,-0.409673 -3.214193,-0.952526 -4.470544,-1.331777 -1.349283,-0.407299 -4.119826,-0.42077 -5.508002,-0.02665 -0.556345,0.157893 -1.682126,0.467794 -2.501712,0.688672 -0.819607,0.220863 -1.783571,0.498304 -2.142139,0.616512 -0.358578,0.118252 -1.657834,0.520396 -2.887228,0.893749 -1.229405,0.373353 -2.822033,0.928686 -3.53918,1.234073 -3.188946,1.357917 -2.839231,1.310223 -3.463646,0.472352 -0.369372,-0.495668 -0.515989,-0.888943 -0.435841,-1.169179 0.06635,-0.232252 0.19332,-0.422285 0.282012,-0.422285 0.08873,0 0.603616,-0.274397 1.144274,-0.609755 1.358503,-0.842662 3.831098,-1.912128 7.223153,-3.124167 2.041152,-0.729347 2.510346,-0.927579 2.960203,-1.250631 0.402466,-0.289019 0.402676,-0.293431 0.04536,-0.964759 -0.416742,-0.782851 -0.751078,-1.273305 -3.225076,-4.730864 -1.613905,-2.255555 -2.15321,-3.317114 -1.685179,-3.317114 0.07938,0 0.952943,0.883366 1.941337,1.963041 2.251006,2.458884 4.358338,4.273556 5.924128,5.101407 1.056536,0.55861 1.685349,0.676905 4.936228,0.928584 3.027598,0.234407 3.86501,0.226805 4.470535,-0.04063 0.729113,-0.321916 0.746284,-0.356634 0.800815,-1.61893 0.05492,-1.270743 0.0387,-1.31433 -1.085085,-2.926416 -2.079549,-2.983008 -4.764505,-4.856078 -10.065976,-7.022179 -1.309103,-0.534874 -3.684323,-0.433387 -5.41736,0.231499 -1.090209,0.418238 -1.363169,0.437593 -2.281842,0.161712 -0.573912,-0.172337 -1.043495,-0.409735 -1.043495,-0.52752 0,-0.228747 0.21796,-0.541722 0.999726,-1.435503 0.269747,-0.30841 0.490462,-0.671147 0.490462,-0.806097 0,-0.25535 -1.047603,-0.948602 -2.326148,-1.539326 -1.369614,-0.632796 -4.212964,-2.702699 -5.746951,-4.183652 -0.835971,-0.807058 -1.687588,-1.536643 -1.892487,-1.621297 -0.36754,-0.151849 -0.697281,-0.09103 -3.818584,0.703876 -0.903225,0.230029 -3.463587,0.501024 -5.960724,0.630902 -5.000658,0.260075 -7.040715,0.563533 -7.993837,1.189122 -0.816603,0.53597 -0.836845,1.059686 -0.153023,3.959137 0.917579,3.890568 1.912003,6.283482 5.236593,12.601064 2.20084,4.182159 3.503299,7.286942 4.29907,10.248033 0.277089,1.031049 0.572033,2.099598 0.655443,2.374534 1.085354,3.577777 1.197572,3.824373 1.592309,3.49934 0.16696,-0.137475 0.527687,-0.781977 0.801611,-1.432217 0.527269,-1.251607 4.086472,-8.333487 4.419853,-8.794334 0.107986,-0.149286 0.778145,-1.33999 1.489253,-2.645975 1.776588,-3.262852 2.657829,-4.62805 2.834417,-4.391066 0.04208,0.05651 -1.209101,2.607777 -2.780521,5.669454 -3.420595,6.664517 -4.424668,8.926872 -5.077971,11.441591 -0.309646,1.191941 -0.337231,1.840055 -0.239357,5.623929 0.104578,4.043296 0.28818,6.472236 0.697828,9.232336 0.09848,0.66349 0.179056,3.72187 0.179056,6.79642 0,3.07457 0.07451,5.65188 0.165546,5.72739 0.32029,0.26563 7.330866,-8.83916 8.070076,-10.48078 0.247624,-0.54989 0.685594,-1.78715 0.973276,-2.74946 0.692018,-2.31485 1.089124,-3.37436 1.264717,-3.37436 0.277636,0 0.140261,2.14508 -0.222715,3.47761 -0.710711,2.60913 -1.55046,4.06433 -5.196783,9.00546 -3.947267,5.34892 -4.681573,6.52033 -4.681573,7.46834 0,0.90493 1.034383,3.62547 1.720872,4.52611 0.321822,0.42218 0.778523,0.7676 1.014906,0.7676 0.695351,0 1.916629,-1.69648 2.51911,-3.49931 1.445216,-4.32456 2.566669,-6.45098 4.539372,-8.60729 1.523702,-1.6655 1.693854,-1.17436 0.444366,1.28263 -2.377776,4.67558 -2.906209,5.80211 -3.324332,7.08683 -1.387153,4.2622 -1.654542,6.6425 -0.953341,8.48683 0.34304,0.90232 1.562994,3.05596 2.521109,4.45066 0.218021,0.31736 0.96492,1.8077 1.659774,3.31186 0.800159,1.7321 1.378816,2.73485 1.578164,2.73485 1.07859,0 3.658559,-3.44819 4.711445,-6.29695 1.566018,-4.23716 2.219849,-8.39213 1.850895,-11.76206 -0.3467,-3.16656 -0.82075,-6.05561 -1.52777,-9.3107 -0.08952,-0.41242 -0.273597,-1.27868 -0.408922,-1.92501 -0.135337,-0.64634 -0.306016,-1.2556 -0.379279,-1.3539 -0.07321,-0.0983 -0.133207,-0.38115 -0.133207,-0.62851 0,-0.24739 -0.137346,-0.87539 -0.30523,-1.39558 -0.335241,-1.03881 -0.472687,-1.51068 -0.821546,-2.82044 -0.922255,-3.4625 -3.194667,-10.068441 -4.160292,-12.094001 -0.370506,-0.7772 -0.673656,-1.469382 -0.673656,-1.538163 0,-0.06874 -0.196682,-0.544644 -0.437075,-1.057438 -0.861942,-1.838614 -1.071049,-3.806796 -0.404455,-3.806796 0.421187,0 1.507248,2.194798 3.092066,6.248786 0.188098,0.481149 0.769939,2.112079 1.292979,3.624306 0.523041,1.512198 1.146999,3.311856 1.386585,3.999216 1.03305,2.96383 3.648045,11.42926 4.014959,12.99748 0.128651,0.5499 0.294387,1.22477 0.368287,1.49972 0.07391,0.27495 0.282888,1.17477 0.4644,1.9996 0.181513,0.82486 0.458114,1.98479 0.614658,2.57763 0.274323,1.03885 0.296744,1.06151 0.618526,0.62489 0.183642,-0.24917 1.16189,-2.64637 2.173912,-5.32709 2.28786,-6.06034 2.94178,-7.49856 3.409403,-7.49856 0.419736,0 0.473035,0.6564 0.09989,1.23007 -0.500291,0.76913 -1.551107,3.69714 -2.787912,7.76819 -0.689124,2.26831 -1.333783,4.31952 -1.432592,4.55824 -0.09878,0.23871 -0.179633,0.60578 -0.179633,0.81573 0,0.20994 -0.07362,0.57702 -0.163536,0.81574 -0.396966,1.05356 -0.76783,2.35548 -0.76783,2.69546 0,0.20341 -0.0761,0.56515 -0.169088,0.80385 -0.31849,0.81754 -0.762279,3.1156 -0.762279,3.94731 0,1.92228 0.593579,1.41033 3.5637,-3.07362 4.462079,-6.73635 5.431814,-8.09013 5.617066,-7.84154 0.26923,0.36125 0.02486,1.32732 -0.656347,2.59496 -0.334306,0.62209 -1.415373,2.63301 -2.402367,4.4687 -1.708526,3.17766 -2.784181,4.74066 -4.940764,7.17932 -1.074779,1.21537 -1.927312,2.71993 -2.284558,4.03179 -0.614707,2.25731 -1.126954,3.68638 -2.077698,5.79639 -1.0785,2.39353 -1.850339,5.55218 -1.849224,7.56768 9.94e-4,2.42476 0.594523,4.1006 2.347475,6.63207 0.42838,0.61864 1.014439,1.50518 1.302349,1.9701 0.84741,1.3684 4.325859,5.48316 5.453539,6.45114 1.325498,1.13777 4.020391,2.82123 4.552971,2.84416 0.224436,0.009 0.575723,0.11432 0.780622,0.23237 0.534809,0.30839 1.428822,0.29432 2.16091,-0.0341 z m 35.972088,-54.80954 c 1.44351,-0.83554 1.95786,-1.1056 2.6607,-1.397 2.40102,-0.99549 3.90358,-2.48366 4.70536,-4.66033 0.34543,-0.9378 0.43465,-1.42266 1.07394,-5.83621 0.29138,-2.01174 0.65355,-3.2466 1.53944,-5.248989 1.04543,-2.362986 1.13076,-2.671155 0.97806,-3.531933 -0.14952,-0.842851 -0.85473,-3.900276 -1.11672,-4.841442 -0.49586,-1.781396 -0.62401,-2.338811 -0.70449,-3.06424 -0.0497,-0.448061 -0.16491,-0.876477 -0.25604,-0.952059 -0.22771,-0.18884 -0.20999,-1.35767 0.0206,-1.35767 0.10245,0 0.18627,0.212096 0.18627,0.471319 0,0.259236 0.12522,0.793526 0.27827,1.187281 0.15304,0.393771 0.27877,0.914312 0.2794,1.156743 5.7e-4,0.242461 0.0764,0.636114 0.1683,0.874846 0.0919,0.238703 0.31152,0.940176 0.48799,1.5588 0.17646,0.618624 0.38811,1.349733 0.47033,1.624683 1.00115,3.347521 0.99195,5.225004 -0.0398,8.123429 -1.02936,2.891802 -1.13075,3.449372 -0.68539,3.769192 0.31204,0.2241 0.47335,0.11723 1.04123,-0.6897 0.36959,-0.52519 0.9143,-1.67127 1.21045,-2.546819 0.50061,-1.480014 0.53296,-1.761095 0.46038,-3.999217 -0.0697,-2.146201 -0.20719,-3.215697 -0.88851,-6.906454 -0.10147,-0.549886 -0.26022,-1.792347 -0.35267,-2.761023 -0.0925,-0.968661 -0.26971,-2.093438 -0.39386,-2.499514 -1.1657,-3.812272 -2.03584,-6.041452 -2.8321,-7.255282 -0.39923,-0.608605 -0.88146,-1.106559 -1.07159,-1.106559 -0.19015,0 -0.39391,-0.104708 -0.45279,-0.232455 -0.0589,-0.127864 -0.58773,-0.30163 -1.17521,-0.386169 -2.60656,-0.375129 -6.37485,-1.300902 -7.217,-1.773066 -0.35941,-0.201523 -1.46999,-1.382543 -2.46793,-2.624494 -2.12034,-2.638781 -4.72704,-5.118216 -5.15126,-4.899773 -0.21302,0.109718 -0.26117,0.364966 -0.1831,0.97068 0.10061,0.780882 0.5225,2.741156 0.82237,3.821283 0.0763,0.274935 0.37182,1.343485 0.65665,2.374534 0.28484,1.031049 1.21682,3.808398 2.07105,6.171864 l 1.55315,4.297221 v 5.433969 c 0,5.172372 -0.11441,7.501339 -0.5858,11.924904 -0.16566,1.55445 -0.15758,2.17262 0.0392,2.99944 0.3397,1.42737 0.71467,2.16624 1.09933,2.16624 0.3805,0 7.66399,-9.845365 8.52191,-11.519373 0.61829,-1.206447 1.28683,-3.015527 1.88564,-5.102427 0.19723,-0.687361 0.43131,-1.216495 0.52018,-1.175864 0.2314,0.105873 0.11232,2.185899 -0.19443,3.396525 -0.62258,2.457093 -1.12577,3.454327 -3.29363,6.527654 -3.90676,5.538475 -5.01578,7.331085 -5.34591,8.641075 -0.12372,0.49092 -0.22494,2.13583 -0.22494,3.65537 0,2.90731 0.2951,4.67463 0.87874,5.26266 0.3779,0.38075 0.2882,0.38441 1.02424,-0.0417 z m -6.93235,-51.632111 c 0,-0.571435 -0.88966,-2.616804 -1.84988,-4.252931 -1.91677,-3.265992 -2.73008,-3.737516 -2.27451,-1.318666 0.12364,0.65653 0.33725,1.864086 0.47467,2.683464 0.2732,1.629039 0.45597,1.879492 2.05216,2.811849 1.1978,0.699658 1.59756,0.718746 1.59756,0.07622 z m 44.67393,-17.378956 c 0.33791,-0.758058 1.03567,-2.079674 1.5506,-2.936935 1.17068,-1.948967 1.43235,-2.639856 2.29439,-6.057777 0.8334,-3.304343 1.14705,-4.033433 2.26298,-5.260478 1.53256,-1.685128 3.4953,-4.476899 4.07757,-5.799878 0.19666,-0.44679 0.41298,-0.812343 0.48072,-0.812343 0.20025,0 0.93939,-2.492425 0.81757,-2.756906 -0.18915,-0.410697 -0.42253,-0.285478 -1.87728,1.00724 -0.77353,0.687364 -1.44055,1.249763 -1.48225,1.249763 -0.43114,0 -2.64419,2.394624 -4.36736,4.725696 -2.70258,3.656 -3.92932,6.301917 -5.00221,10.789054 -0.47576,1.989773 -0.12012,7.230856 0.49066,7.230856 0.0772,0 0.41671,-0.620236 0.75461,-1.378292 z m -8.54607,-4.926173 c 0.25906,-0.619343 0.25286,-0.746938 -0.0727,-1.497947 -0.19574,-0.451502 -0.4046,-0.877161 -0.46413,-0.945905 -0.24355,-0.281246 -1.70471,-3.020761 -2.04577,-3.835586 -0.20163,-0.481669 -0.41991,-1.306053 -0.48511,-1.831945 -0.24468,-1.973795 -1.355,-5.063859 -2.79085,-7.766972 -0.64552,-1.215232 -0.93623,-1.359699 -0.75535,-0.375325 0.59657,3.246424 0.5524,4.700136 -0.2291,7.538733 -0.55389,2.011877 -0.45133,2.279375 1.92789,5.028113 2.50143,2.889894 4.07835,4.506905 4.33143,4.4415 0.16528,-0.04271 0.42793,-0.382305 0.58369,-0.754666 z M 28.40998,120.87765 c -0.395602,-0.32809 -0.04516,-0.6007 0.416693,-0.32415 0.32595,0.19518 0.351187,0.2744 0.124601,0.39106 -0.156295,0.0805 -0.39987,0.0504 -0.541294,-0.0668 z M 2.902149,98.641487 c -0.20463,-0.177437 -0.067538,-0.24332 0.5122485,-0.24613 0.4354024,-0.0013 0.7916527,0.10864 0.7916527,0.24613 0,0.31893 -0.9361111,0.31893 -1.3039012,0 z M 1.6932475,97.887558 c 0.064358,-0.13966 0.1950404,-0.18932 0.2904079,-0.110243 0.258367,0.214266 0.2101911,0.364237 -0.1170027,0.364237 -0.1597273,0 -0.2377563,-0.11432 -0.1734052,-0.254024 z M 36.744919,73.708804 c -0.04447,-0.103107 -0.01333,-0.412426 0.06903,-0.687376 0.130829,-0.436411 0.15153,-0.412601 0.16296,0.187455 0.01283,0.678129 -0.07421,0.86589 -0.232016,0.499921 z m 0.431373,-2.172341 c 0,-0.351785 0.08386,-0.639624 0.186268,-0.639624 0.102462,0 0.186277,0.218329 0.186277,0.485153 0,0.266839 -0.08386,0.554678 -0.186277,0.639624 -0.105642,0.08752 -0.186268,-0.122475 -0.186268,-0.485153 z m 0.588238,-1.639436 c 0,-0.343673 0.04228,-0.484294 0.09391,-0.312435 0.05163,0.171844 0.05163,0.453027 0,0.624871 -0.05163,0.171859 -0.09391,0.03131 -0.09391,-0.312436 z M 182.6086,61.13608 c -0.28173,-0.387937 -0.51225,-0.811208 -0.51225,-0.94062 0,-0.12948 -0.12574,-0.37531 -0.27942,-0.546446 -0.30633,-0.341154 -0.38317,-1.249764 -0.1057,-1.249764 0.0955,0 0.23276,0.253082 0.30492,0.562385 0.0722,0.309331 0.37928,1.04834 0.68247,1.642267 0.656,1.285056 0.61836,1.507571 -0.0901,0.532178 z m 16.62482,-1.487066 c -0.20024,-0.17366 -0.005,-0.243378 0.68753,-0.246127 0.53182,-0.0013 1.01874,0.108655 1.08207,0.246127 0.15001,0.325682 -1.39403,0.325682 -1.7696,0 z m -2.79408,-0.499903 c -0.43518,-0.187021 -0.42297,-0.204228 0.18628,-0.262733 0.9589,-0.0921 1.74555,0.0223 1.94654,0.283088 0.21746,0.282142 -1.46632,0.26607 -2.13282,-0.02042 z m -12.7131,-8.163987 c 0.12806,-0.06941 0.33761,-0.06941 0.46567,0 0.12807,0.06928 0.0232,0.125999 -0.23283,0.125999 -0.25613,0 -0.36091,-0.05672 -0.23284,-0.125999 z m -2.74752,-0.584318 c -0.20025,-0.17366 -0.005,-0.24339 0.68752,-0.246127 0.53181,-0.0013 1.01875,0.108655 1.08207,0.246127 0.14999,0.325669 -1.39403,0.325669 -1.76959,0 z m -2.65105,-0.681051 c 0.33479,-0.05566 0.83773,-0.05447 1.11763,0.0026 0.2799,0.057 0.007,0.102509 -0.60872,0.101184 -0.6147,-0.0013 -0.84371,-0.04806 -0.50891,-0.103718 z M 61.722209,40.652684 c -0.04695,-0.206215 -0.224387,-0.952406 -0.39423,-1.658232 -0.169835,-0.705811 -0.308792,-1.611258 -0.308792,-2.012103 0,-0.400847 -0.0746,-0.835663 -0.165814,-0.966276 -0.229927,-0.329259 -0.403542,-2.861929 -0.196186,-2.861929 0.09272,0 0.207048,0.253068 0.25401,0.562386 0.210152,1.384165 0.299928,1.911646 0.585013,3.436836 0.397673,2.127485 0.513124,3.146246 0.40201,3.547318 -0.06913,0.249478 -0.110816,0.238104 -0.176011,-0.04791 z m 26.156538,-6.873672 c 0.004,-0.412419 0.04556,-0.550879 0.09281,-0.307676 0.04725,0.243191 0.04417,0.58062 -0.0069,0.749848 -0.05103,0.169227 -0.08962,-0.02977 -0.08585,-0.442172 z M 60.176911,32.129617 c -0.0752,-0.459443 -0.04337,-0.886532 0.07839,-1.049794 0.149312,-0.200356 0.205118,0.01063 0.205118,0.774554 0,1.243117 -0.107878,1.347873 -0.283454,0.27524 z m 77.400299,-0.225238 c 0,-0.137475 0.0789,-0.249957 0.17527,-0.249957 0.0964,0 0.2271,0.112529 0.29041,0.249957 0.0633,0.137476 -0.0155,0.249946 -0.17528,0.249946 -0.15972,0 -0.2904,-0.112529 -0.2904,-0.249946 z M 79.097613,22.656173 c -0.02238,-0.206229 -0.105533,-2.174592 -0.184725,-4.374159 -0.07918,-2.199579 -0.20489,-4.188779 -0.279336,-4.420449 -0.0932,-0.290057 0.01442,-0.595969 0.345636,-0.982387 0.264535,-0.308662 0.480982,-0.815467 0.480982,-1.126239 0,-0.310773 0.07431,-0.626683 0.165149,-0.702021 0.09082,-0.07528 0.219422,-0.52513 0.285753,-0.999552 0.08714,-0.6231456 0.3828,-1.1616522 1.06515,-1.9398914 0.5195,-0.5925122 1.116231,-1.2741226 1.326064,-1.51471 0.404467,-0.4637166 0.697063,-0.5653492 0.697063,-0.2421238 0,0.1074607 -0.501792,0.861585 -1.115088,1.6759579 -1.871765,2.4854303 -2.195109,3.7961293 -2.436555,9.8764793 -0.16097,4.053976 -0.267946,5.505056 -0.350093,4.749095 z M 78.185664,11.908232 c 0,-0.343676 0.04228,-0.484272 0.09401,-0.312428 0.05172,0.171832 0.05172,0.453037 0,0.624868 -0.05163,0.171845 -0.09401,0.03124 -0.09401,-0.31244 z m 9.820203,0.374937 C 87.782714,11.802181 87.65842,9.7803579 87.829974,9.4217588 c 0.137475,-0.2873319 0.197478,-0.2317098 0.291324,0.2699945 0.143741,0.7684807 0.04695,2.9413907 -0.115431,2.5914157 z m -10.34587,-2.016417 c -0.06158,-0.215453 -0.01701,-0.5191508 0.09898,-0.6748706 0.157151,-0.2108875 0.210997,-0.1109267 0.210997,0.39173 0,0.7520226 -0.139464,0.8794176 -0.309985,0.2831406 z M 88.415585,3.6406098 C 88.069173,3.2347711 87.81952,2.8574046 87.860792,2.8020228 c 0.04129,-0.055398 0.355405,0.2354758 0.698077,0.6463052 0.342672,0.4108571 0.592325,0.7882105 0.554783,0.838587 -0.03751,0.050315 -0.351665,-0.240468 -0.698067,-0.6463052 z"
       id="path239" /></g></svg>
